<svg width="30" height="30" viewBox="0 0 30 30" fill="none" xmlns="http://www.w3.org/2000/svg">
<path d="M15 3.75C8.125 3.75 2.5 8.225 2.5 13.75C2.53139 15.0784 2.85578 16.3834 3.45001 17.5719C4.04424 18.7603 4.89364 19.8029 5.9375 20.625C5.9375 21.375 5.4125 23.3375 2.5 26.25C5.4625 26.1125 8.3 25 10.5875 23.125C12.0125 23.5375 13.5125 23.75 15 23.75C21.875 23.75 27.5 19.275 27.5 13.75C27.5 8.225 21.875 3.75 15 3.75ZM15 21.25C9.475 21.25 5 17.8875 5 13.75C5 9.6125 9.475 6.25 15 6.25C20.525 6.25 25 9.6125 25 13.75C25 17.8875 20.525 21.25 15 21.25ZM21.25 15V12.5H18.75V15H21.25ZM16.25 15V12.5H13.75V15H16.25ZM11.25 15V12.5H8.75V15H11.25Z" fill="#C2995A"/>
</svg>
