<svg width="30" height="30" viewBox="0 0 30 30" fill="none" xmlns="http://www.w3.org/2000/svg">
<rect width="30" height="30" rx="6.25" fill="url(#paint0_linear_1009_4842)"/>
<path d="M15 5C17.717 5 18.056 5.01 19.122 5.06C20.187 5.11 20.912 5.277 21.55 5.525C22.21 5.779 22.766 6.123 23.322 6.678C23.8305 7.1779 24.224 7.78259 24.475 8.45C24.722 9.087 24.89 9.813 24.94 10.878C24.987 11.944 25 12.283 25 15C25 17.717 24.99 18.056 24.94 19.122C24.89 20.187 24.722 20.912 24.475 21.55C24.2247 22.2178 23.8311 22.8226 23.322 23.322C22.822 23.8303 22.2173 24.2238 21.55 24.475C20.913 24.722 20.187 24.89 19.122 24.94C18.056 24.987 17.717 25 15 25C12.283 25 11.944 24.99 10.878 24.94C9.813 24.89 9.088 24.722 8.45 24.475C7.78233 24.2245 7.17753 23.8309 6.678 23.322C6.16941 22.8222 5.77593 22.2175 5.525 21.55C5.277 20.913 5.11 20.187 5.06 19.122C5.013 18.056 5 17.717 5 15C5 12.283 5.01 11.944 5.06 10.878C5.11 9.812 5.277 9.088 5.525 8.45C5.77524 7.78218 6.1688 7.17732 6.678 6.678C7.17767 6.16923 7.78243 5.77573 8.45 5.525C9.088 5.277 9.812 5.11 10.878 5.06C11.944 5.013 12.283 5 15 5ZM15 10C13.6739 10 12.4021 10.5268 11.4645 11.4645C10.5268 12.4021 10 13.6739 10 15C10 16.3261 10.5268 17.5979 11.4645 18.5355C12.4021 19.4732 13.6739 20 15 20C16.3261 20 17.5979 19.4732 18.5355 18.5355C19.4732 17.5979 20 16.3261 20 15C20 13.6739 19.4732 12.4021 18.5355 11.4645C17.5979 10.5268 16.3261 10 15 10ZM21.5 9.75C21.5 9.41848 21.3683 9.10054 21.1339 8.86612C20.8995 8.6317 20.5815 8.5 20.25 8.5C19.9185 8.5 19.6005 8.6317 19.3661 8.86612C19.1317 9.10054 19 9.41848 19 9.75C19 10.0815 19.1317 10.3995 19.3661 10.6339C19.6005 10.8683 19.9185 11 20.25 11C20.5815 11 20.8995 10.8683 21.1339 10.6339C21.3683 10.3995 21.5 10.0815 21.5 9.75ZM15 12C15.7956 12 16.5587 12.3161 17.1213 12.8787C17.6839 13.4413 18 14.2044 18 15C18 15.7956 17.6839 16.5587 17.1213 17.1213C16.5587 17.6839 15.7956 18 15 18C14.2044 18 13.4413 17.6839 12.8787 17.1213C12.3161 16.5587 12 15.7956 12 15C12 14.2044 12.3161 13.4413 12.8787 12.8787C13.4413 12.3161 14.2044 12 15 12Z" fill="#8F3618"/>
<defs>
<linearGradient id="paint0_linear_1009_4842" x1="-4" y1="-5.5" x2="33" y2="32.5" gradientUnits="userSpaceOnUse">
<stop stop-color="#A78848"/>
<stop offset="0.526042" stop-color="#F0EBB1"/>
<stop offset="1" stop-color="#9C7D44"/>
</linearGradient>
</defs>
</svg>
