<svg width="24" height="24" viewBox="0 0 24 24" fill="none" xmlns="http://www.w3.org/2000/svg">
<g clip-path="url(#clip0_820_5500)">
<path d="M21.3359 4H2.66927C2.31565 4 1.97651 4.14048 1.72646 4.39052C1.47641 4.64057 1.33594 4.97971 1.33594 5.33333V18.6667C1.33594 19.0203 1.47641 19.3594 1.72646 19.6095C1.97651 19.8595 2.31565 20 2.66927 20H12.6693L13.0493 19.5333L13.6693 18.7733L13.6093 18.6667H2.66927V5.33333H21.3359V11.04C21.8424 11.3679 22.2926 11.7753 22.6693 12.2467V5.33333C22.6693 4.97971 22.5288 4.64057 22.2787 4.39052C22.0287 4.14048 21.6896 4 21.3359 4Z" fill="#635B5A"/>
<path d="M4.66406 8H15.9974V9.06667H4.66406V8Z" fill="#635B5A"/>
<path d="M4.66406 10.6666H11.9974V11.7333H4.66406V10.6666Z" fill="#635B5A"/>
<path d="M4.66406 15.3333H11.3307V16.4H4.66406V15.3333Z" fill="#635B5A"/>
<path d="M18.3049 11.4867C17.4518 11.4799 16.6165 11.7307 15.9081 12.2062C15.1998 12.6816 14.6514 13.3598 14.3345 14.1519C14.0177 14.944 13.9471 15.8133 14.1322 16.6461C14.3172 17.4789 14.7491 18.2366 15.3716 18.82L14.0783 20.4L14.6783 22.8067L17.1183 19.8334C17.8906 20.0617 18.7126 20.0617 19.4849 19.8334L21.9249 22.8067L22.5249 20.4L21.2316 18.82C21.854 18.2366 22.286 17.4789 22.471 16.6461C22.656 15.8133 22.5855 14.944 22.2687 14.1519C21.9518 13.3598 21.4034 12.6816 20.695 12.2062C19.9867 11.7307 19.1514 11.4799 18.2983 11.4867H18.3049ZM18.3049 18.6067C17.7384 18.5988 17.1869 18.4236 16.7196 18.1031C16.2524 17.7827 15.8903 17.3312 15.679 16.8055C15.4676 16.2798 15.4164 15.7034 15.5318 15.1487C15.6471 14.594 15.9239 14.0858 16.3273 13.6879C16.7306 13.2901 17.2427 13.0203 17.7989 12.9127C18.3552 12.805 18.9308 12.8642 19.4535 13.0828C19.9762 13.3014 20.4227 13.6697 20.7366 14.1413C21.0506 14.6129 21.2182 15.1668 21.2183 15.7334C21.2112 16.5002 20.9007 17.233 20.3548 17.7715C19.8088 18.31 19.0718 18.6103 18.3049 18.6067Z" fill="#635B5A"/>
</g>
<defs>
<clipPath id="clip0_820_5500">
<rect width="24" height="24" fill="white"/>
</clipPath>
</defs>
</svg>
