<svg width="30" height="30" viewBox="0 0 30 30" fill="none" xmlns="http://www.w3.org/2000/svg">
<path d="M15 16.25C17.0681 16.25 18.75 14.5681 18.75 12.5C18.75 10.4319 17.0681 8.75 15 8.75C12.9319 8.75 11.25 10.4319 11.25 12.5C11.25 14.5681 12.9319 16.25 15 16.25Z" fill="#C2995A"/>
<path d="M14.2751 27.2675C14.4867 27.4186 14.7401 27.4998 15.0001 27.4998C15.2601 27.4998 15.5136 27.4186 15.7251 27.2675C16.1051 26.9987 25.0364 20.55 25.0001 12.5C25.0001 6.98625 20.5139 2.5 15.0001 2.5C9.48636 2.5 5.00011 6.98625 5.00011 12.4937C4.96386 20.55 13.8951 26.9987 14.2751 27.2675ZM15.0001 5C19.1364 5 22.5001 8.36375 22.5001 12.5063C22.5264 18.0538 17.0151 23.035 15.0001 24.6688C12.9864 23.0338 7.47386 18.0513 7.50011 12.5C7.50011 8.36375 10.8639 5 15.0001 5Z" fill="#C2995A"/>
</svg>
