<svg width="30" height="30" viewBox="0 0 30 30" fill="none" xmlns="http://www.w3.org/2000/svg">
<path d="M24.3761 27.1875H24.2167C5.79487 26.1281 3.17924 10.5844 2.81362 5.84063C2.78416 5.47179 2.82776 5.10077 2.94194 4.74882C3.05611 4.39687 3.23861 4.07091 3.47898 3.78961C3.71934 3.50831 4.01285 3.27721 4.34269 3.10954C4.67253 2.94187 5.0322 2.84093 5.40112 2.8125H10.5667C10.9423 2.81214 11.3092 2.92454 11.6201 3.13515C11.9311 3.34576 12.1715 3.64488 12.3105 3.99375L13.7355 7.5C13.8727 7.84083 13.9067 8.21445 13.8334 8.57446C13.7601 8.93447 13.5826 9.26501 13.323 9.525L11.3261 11.5406C11.638 13.3132 12.4869 14.9472 13.7579 16.2215C15.0289 17.4959 16.6606 18.349 18.4324 18.6656L20.4667 16.65C20.7306 16.3933 21.0643 16.2199 21.4261 16.1516C21.7878 16.0832 22.1617 16.1229 22.5011 16.2656L26.0355 17.6813C26.3791 17.8246 26.6723 18.067 26.8776 18.3775C27.083 18.6881 27.1913 19.0527 27.1886 19.425V24.375C27.1886 25.1209 26.8923 25.8363 26.3649 26.3637C25.8374 26.8912 25.122 27.1875 24.3761 27.1875ZM5.62612 4.6875C5.37748 4.6875 5.13902 4.78627 4.9632 4.96209C4.78739 5.1379 4.68862 5.37636 4.68862 5.625V5.7C5.11987 11.25 7.88549 24.375 24.3199 25.3125C24.443 25.3201 24.5665 25.3033 24.6832 25.2631C24.7998 25.2229 24.9074 25.1601 24.9997 25.0782C25.092 24.9963 25.1673 24.897 25.2212 24.786C25.275 24.675 25.3064 24.5544 25.3136 24.4312V19.425L21.7792 18.0094L19.0886 20.6812L18.6386 20.625C10.4824 19.6031 9.37612 11.4469 9.37612 11.3625L9.31987 10.9125L11.9824 8.22188L10.5761 4.6875H5.62612Z" fill="#C2995A"/>
</svg>
