<svg width="30" height="30" viewBox="0 0 30 30" fill="none" xmlns="http://www.w3.org/2000/svg">
<path d="M15 3.75C8.125 3.75 2.5 8.25 2.5 13.75C2.5 16.5 3.875 19 6 20.625C6 21.375 5.5 23.375 2.5 26.25C5.5 26.125 8.25 25 10.625 23.125C12 23.5 13.5 23.75 15 23.75C21.875 23.75 27.5 19.25 27.5 13.75C27.5 8.25 21.875 3.75 15 3.75ZM15 21.25C9.5 21.25 5 17.875 5 13.75C5 9.625 9.5 6.25 15 6.25C20.5 6.25 25 9.625 25 13.75C25 17.875 20.5 21.25 15 21.25ZM15.25 8.125C14.125 8.125 13.25 8.375 12.625 8.75C11.875 9.25 11.5 10 11.625 10.875H14.125C14.125 10.5 14.25 10.25 14.5 10.125C14.75 10 15 9.875 15.375 9.875C15.75 9.875 16.125 10 16.375 10.25C16.625 10.5 16.75 10.75 16.75 11.125C16.75 11.5 16.625 11.75 16.5 12C16.25 12.25 16 12.5 15.75 12.625C15.125 13 14.625 13.375 14.375 13.625C13.875 14 13.75 14.375 13.75 15H16.25C16.25 14.625 16.375 14.375 16.375 14.125C16.5 13.875 16.75 13.75 17 13.5C17.625 13.25 18 12.875 18.375 12.375C18.75 11.875 18.875 11.375 18.875 10.875C18.875 10 18.5 9.25 17.875 8.75C17.375 8.375 16.375 8.125 15.25 8.125ZM13.75 16.25V18.75H16.25V16.25H13.75Z" fill="#C2995A"/>
</svg>
