<svg width="24" height="24" viewBox="0 0 24 24" fill="none" xmlns="http://www.w3.org/2000/svg">
<g clip-path="url(#clip0_820_5513)">
<path d="M12.1028 -3.05119e-06C12.4958 -3.05119e-06 12.8828 0.0254969 13.2428 0.0854969C13.5974 0.131956 13.9472 0.209249 14.2883 0.316497C14.6303 0.419997 14.9648 0.548997 15.2993 0.710997C15.6248 0.865497 15.9593 1.0545 16.2938 1.26C16.8593 1.62 17.4158 1.911 17.9828 2.1435C19.099 2.59025 20.2793 2.85609 21.4793 2.931C22.0883 2.9745 22.7138 3 23.3648 3V9C23.3648 10.14 23.2193 11.22 22.9283 12.249C22.6488 13.2633 22.2516 14.2415 21.7448 15.1635C21.2402 16.0842 20.6431 16.9512 19.9628 17.751C19.2721 18.569 18.5242 19.3369 17.7248 20.049C16.9148 20.7632 16.0617 21.427 15.1703 22.0365C14.2793 22.6545 13.3793 23.229 12.4793 23.751L12.1193 23.9655L11.7593 23.751C10.8341 23.2153 9.9304 22.6434 9.0503 22.0365C8.15389 21.4338 7.30035 20.7697 6.4958 20.049C5.69688 19.3369 4.94951 18.5689 4.2593 17.751C3.58084 16.9478 2.98109 16.0813 2.4683 15.1635C1.9702 14.2374 1.57341 13.2602 1.2848 12.249C0.991956 11.1911 0.847575 10.0976 0.855801 9V3C1.5083 3 2.1338 2.9745 2.7428 2.931C3.34229 2.88936 3.9379 2.80363 4.5248 2.6745C5.0993 2.5455 5.6738 2.3745 6.2393 2.1435C6.82611 1.90667 7.38871 1.61381 7.9193 1.269C8.5793 0.839997 9.2483 0.523497 9.9083 0.314997C10.6191 0.0970944 11.3594 -0.00917031 12.1028 -3.05119e-06ZM21.8558 4.4745C20.7203 4.4194 19.5955 4.22957 18.5048 3.909C17.4199 3.58538 16.3866 3.10911 15.4358 2.4945C14.9426 2.17079 14.4071 1.91688 13.8443 1.74C13.2821 1.5701 12.6975 1.48615 12.1103 1.491C11.5187 1.48717 10.9298 1.57108 10.3628 1.74C9.79921 1.91113 9.26431 2.16544 8.7758 2.4945C7.82339 3.11246 6.78737 3.59082 5.6993 3.915C4.6358 4.224 3.5228 4.413 2.3558 4.482V9.0075C2.3558 10.002 2.4848 10.953 2.7428 11.8695C3.00564 12.778 3.36783 13.6548 3.8228 14.484C4.28323 15.3218 4.8259 16.1117 5.4428 16.842C6.0683 17.5785 6.7358 18.264 7.4558 18.915C8.1758 19.5675 8.9303 20.1675 9.7193 20.724C10.5158 21.282 11.3138 21.7875 12.1103 22.2495C12.9259 21.7747 13.7211 21.2657 14.4938 20.724C15.288 20.1692 16.0465 19.5651 16.7648 18.915C17.4848 18.264 18.1538 17.5785 18.7793 16.842C19.3963 16.1117 19.9389 15.3218 20.3993 14.484C20.8523 13.6559 21.2091 12.7787 21.4628 11.8695C21.7286 10.9389 21.861 9.97529 21.8558 9.0075V4.4745Z" fill="#635B5A"/>
<path fill-rule="evenodd" clip-rule="evenodd" d="M17.6962 7.06352L17.0362 6.49652L16.4272 6.54902L9.88722 14.271L7.65972 11.091L7.05972 10.989L6.36522 11.4855L6.26172 12.0855L9.12522 16.1745L9.45072 16.3545L10.1362 16.3965L10.4872 16.2435L17.7397 7.67102L17.6962 7.06352Z" fill="#635B5A"/>
</g>
<defs>
<clipPath id="clip0_820_5513">
<rect width="24" height="24" fill="white"/>
</clipPath>
</defs>
</svg>
