<svg width="30" height="30" viewBox="0 0 30 30" fill="none" xmlns="http://www.w3.org/2000/svg">
<rect width="30" height="30" rx="5" fill="url(#paint0_linear_1009_4838)"/>
<path d="M24.8413 10.215C24.726 9.7865 24.5001 9.39581 24.1864 9.08204C23.8726 8.76827 23.4819 8.54241 23.0534 8.42707C21.4754 8 15.1345 8 15.1345 8C15.1345 8 8.79353 8 7.21553 8.42707C6.78704 8.54241 6.39636 8.76827 6.08258 9.08204C5.76881 9.39581 5.54295 9.7865 5.42762 10.215C5.13297 11.8243 4.98999 13.4577 5.00054 15.0938C4.98999 16.7298 5.13297 18.3632 5.42762 19.9725C5.54295 20.401 5.76881 20.7917 6.08258 21.1055C6.39636 21.4192 6.78704 21.6451 7.21553 21.7604C8.79353 22.1875 15.1345 22.1875 15.1345 22.1875C15.1345 22.1875 21.4754 22.1875 23.0534 21.7604C23.4819 21.6451 23.8726 21.4192 24.1864 21.1055C24.5001 20.7917 24.726 20.401 24.8413 19.9725C25.136 18.3632 25.279 16.7298 25.2684 15.0938C25.279 13.4577 25.136 11.8243 24.8413 10.215ZM13.1077 18.1339V12.0536L18.3701 15.0938L13.1077 18.1339Z" fill="#8F3618"/>
<defs>
<linearGradient id="paint0_linear_1009_4838" x1="-4" y1="-5.5" x2="33" y2="32.5" gradientUnits="userSpaceOnUse">
<stop stop-color="#A78848"/>
<stop offset="0.526042" stop-color="#F0EBB1"/>
<stop offset="1" stop-color="#9C7D44"/>
</linearGradient>
</defs>
</svg>
