<svg width="169" height="51" viewBox="0 0 169 51" fill="none" xmlns="http://www.w3.org/2000/svg">
<path fill-rule="evenodd" clip-rule="evenodd" d="M162.738 50.0036H6.26156C2.81055 50.0036 0 47.1854 0 43.7532V6.25045C0 2.80569 2.81055 0 6.26156 0H162.738C166.186 0 169 2.80569 169 6.25045V43.7532C169 47.1854 166.186 50.0036 162.738 50.0036Z" fill="black"/>
<path fill-rule="evenodd" clip-rule="evenodd" d="M162.738 1.0007C165.633 1.0007 168.002 3.36059 168.002 6.25045V43.7532C168.002 46.643 165.648 49.0029 162.738 49.0029H6.26156C3.36707 49.0029 0.997995 46.643 0.997995 43.7532V6.25045C0.997995 3.36059 3.35152 1.0007 6.26156 1.0007H162.738ZM162.738 0H6.26156C2.81055 0 0 2.81816 0 6.25045V43.7532C0 47.1979 2.81055 50.0036 6.26156 50.0036H162.738C166.186 50.0036 169 47.1979 169 43.7532V6.25045C169 2.81816 166.186 0 162.738 0Z" fill="#A6A6A6"/>
<path d="M89.0288 16.5399C87.9002 16.5399 86.9488 16.1441 86.1965 15.3648C85.4503 14.6073 85.0337 13.563 85.0524 12.4969C85.0524 11.3592 85.4379 10.3959 86.1965 9.63222C86.9457 8.85292 87.8971 8.45703 89.0257 8.45703C90.1418 8.45703 91.0931 8.85292 91.858 9.63222C92.6166 10.4209 93.0021 11.3841 93.0021 12.4969C92.9896 13.6378 92.6041 14.601 91.858 15.3616C91.1087 16.1472 90.1573 16.5399 89.0288 16.5399ZM55.4485 16.5399C54.3448 16.5399 53.3872 16.1503 52.6037 15.3803C51.8265 14.6135 51.4316 13.6441 51.4316 12.5C51.4316 11.356 51.8265 10.3866 52.6037 9.61975C53.3717 8.8498 54.3292 8.46015 55.4485 8.46015C55.9956 8.46015 56.5273 8.56925 57.0372 8.79057C57.5377 9.00566 57.945 9.29868 58.2466 9.65716L58.3212 9.74756L57.4786 10.5767L57.3916 10.4739C56.9159 9.90653 56.2786 9.6291 55.436 9.6291C54.6837 9.6291 54.0277 9.89718 53.4867 10.4271C52.9426 10.9601 52.6659 11.6584 52.6659 12.5032C52.6659 13.3479 52.9426 14.0462 53.4867 14.5792C54.0277 15.1092 54.6837 15.3772 55.436 15.3772C56.2382 15.3772 56.9128 15.1092 57.4382 14.5792C57.7491 14.2675 57.9419 13.8311 58.0103 13.2794H55.3086V12.1135H59.1699L59.1855 12.2195C59.2135 12.4159 59.2414 12.6185 59.2414 12.8055C59.2414 13.881 58.9181 14.7507 58.2777 15.3928C57.5501 16.1534 56.5988 16.5399 55.4485 16.5399ZM100.097 16.3747H98.9061L95.2592 10.5237L95.2903 11.5774V16.3716H94.0995V8.62536H95.4582L95.4955 8.68459L98.9247 14.1958L98.8936 13.1453V8.62536H100.097V16.3747ZM80.0811 16.3747H78.8748V9.7912H76.7824V8.62536H82.1703V9.7912H80.078V16.3747H80.0811ZM75.8 16.3747H74.5968V8.62536H75.8V16.3747ZM69.0379 16.3747H67.8347V9.7912H65.7424V8.62536H71.1303V9.7912H69.0379V16.3747ZM64.9807 16.3623H60.3669V8.62536H64.9807V9.7912H61.5732V11.9171H64.648V13.0705H61.5732V15.1964H64.9807V16.3623ZM87.0794 14.5636C87.6173 15.1029 88.2702 15.3741 89.0288 15.3741C89.8091 15.3741 90.4465 15.1092 90.9781 14.5636C91.5066 14.0337 91.774 13.3386 91.774 12.5C91.774 11.6615 91.5066 10.9633 90.9812 10.4365C90.4434 9.89718 89.7874 9.62598 89.0319 9.62598C88.2515 9.62598 87.6142 9.89095 87.0856 10.4365C86.5571 10.9664 86.2897 11.6615 86.2897 12.5C86.2897 13.3386 86.554 14.0368 87.0794 14.5636Z" fill="white"/>
<path fill-rule="evenodd" clip-rule="evenodd" d="M84.9406 27.1964C82.0026 27.1964 79.6211 29.4316 79.6211 32.5147C79.6211 35.5698 82.0182 37.8331 84.9406 37.8331C87.8787 37.8331 90.2602 35.5823 90.2602 32.5147C90.2602 29.4316 87.8787 27.1964 84.9406 27.1964ZM84.9406 35.7257C83.3333 35.7257 81.9498 34.3914 81.9498 32.5023C81.9498 30.5851 83.3364 29.2789 84.9406 29.2789C86.548 29.2789 87.9315 30.5851 87.9315 32.5023C87.9346 34.4039 86.548 35.7257 84.9406 35.7257ZM73.3347 27.1964C70.3966 27.1964 68.0151 29.4316 68.0151 32.5147C68.0151 35.5698 70.4122 37.8331 73.3347 37.8331C76.2727 37.8331 78.6542 35.5823 78.6542 32.5147C78.6542 29.4316 76.2696 27.1964 73.3347 27.1964ZM73.3347 35.7257C71.7273 35.7257 70.3438 34.3914 70.3438 32.5023C70.3438 30.5851 71.7304 29.2789 73.3347 29.2789C74.942 29.2789 76.3255 30.5851 76.3255 32.5023C76.3255 34.4039 74.942 35.7257 73.3347 35.7257ZM59.5244 28.8206V31.0714H64.9123C64.7475 32.3339 64.3309 33.266 63.6936 33.9051C62.9039 34.6969 61.6852 35.5574 59.5368 35.5574C56.2257 35.5574 53.6359 32.8764 53.6359 29.5563C53.6359 26.2362 56.2257 23.5552 59.5368 23.5552C61.3245 23.5552 62.6272 24.2629 63.5941 25.167L65.1859 23.5708C63.8428 22.2802 62.0551 21.292 59.5493 21.292C55.007 21.292 51.1953 25.0017 51.1953 29.5438C51.1953 34.0984 55.0039 37.7957 59.5493 37.7957C62.0023 37.7957 63.8428 36.9914 65.2978 35.4763C66.7808 33.9893 67.2503 31.8913 67.2503 30.1985C67.2503 29.6716 67.2099 29.1978 67.1259 28.7956H59.5213C59.5244 28.7925 59.5244 28.8206 59.5244 28.8206ZM116.012 30.5726C115.568 29.3786 114.225 27.1839 111.47 27.1839C108.74 27.1839 106.471 29.3381 106.471 32.5023C106.471 35.4888 108.715 37.8206 111.734 37.8206C114.159 37.8206 115.571 36.3336 116.152 35.4607L114.352 34.2512C113.755 35.1396 112.925 35.7226 111.747 35.7226C110.556 35.7226 109.723 35.1801 109.169 34.1109L116.261 31.1649C116.261 31.168 116.012 30.5726 116.012 30.5726ZM108.781 32.3495C108.725 30.2951 110.372 29.2508 111.551 29.2508C112.48 29.2508 113.255 29.7091 113.519 30.3762L108.781 32.3495ZM103.02 37.5026H105.348V21.8781H103.02V37.5026ZM99.1955 28.3779H99.1116C98.5861 27.7513 97.5881 27.1839 96.3134 27.1839C93.6677 27.1839 91.2302 29.5189 91.2302 32.5179C91.2302 35.5044 93.6552 37.8113 96.3134 37.8113C97.5726 37.8113 98.5861 37.2408 99.1116 36.6017H99.1955V37.3655C99.1955 39.3949 98.1136 40.4891 96.3694 40.4891C94.9424 40.4891 94.0563 39.4604 93.6956 38.6L91.6717 39.4479C92.2531 40.8508 93.8045 42.5872 96.3663 42.5872C99.096 42.5872 101.409 40.9755 101.409 37.0444V27.5019H99.2079V28.3779C99.2111 28.3779 99.1955 28.3779 99.1955 28.3779ZM96.5217 35.7257C94.9144 35.7257 93.5713 34.379 93.5713 32.5179C93.5713 30.6412 94.9144 29.282 96.5217 29.282C98.1136 29.282 99.3478 30.6568 99.3478 32.5179C99.3634 34.379 98.1167 35.7257 96.5217 35.7257ZM126.916 21.8781H121.347V37.5026H123.676V31.5857H126.919C129.496 31.5857 132.03 29.7122 132.03 26.7381C132.03 23.7641 129.505 21.8781 126.916 21.8781ZM126.984 29.4035H123.673V24.0416H126.984C128.728 24.0416 129.714 25.4849 129.714 26.7226C129.714 27.9477 128.716 29.4035 126.984 29.4035ZM141.363 27.1683C139.672 27.1683 137.928 27.9196 137.206 29.5563L139.271 30.4167C139.715 29.5563 140.53 29.2633 141.391 29.2633C142.597 29.2633 143.816 29.9865 143.844 31.2771V31.4423C143.428 31.2054 142.514 30.8438 141.419 30.8438C139.19 30.8438 136.93 32.0658 136.93 34.3571C136.93 36.4552 138.758 37.8019 140.794 37.8019C142.358 37.8019 143.219 37.0942 143.757 36.2744H143.841V37.4839H146.086V31.4985C146.086 28.7115 144.021 27.1683 141.363 27.1683ZM141.071 35.7257C140.309 35.7257 139.243 35.3516 139.243 34.3914C139.243 33.1819 140.573 32.7236 141.708 32.7236C142.734 32.7236 143.219 32.9449 143.829 33.2505C143.661 34.6533 142.479 35.7132 141.071 35.7257ZM154.275 27.5019L151.601 34.2792H151.517L148.747 27.5019H146.241L150.398 36.9758L148.029 42.2411H150.454L156.849 27.5019H154.275ZM133.314 37.5026H135.643V21.8781H133.314V37.5026Z" fill="white"/>
<path fill-rule="evenodd" clip-rule="evenodd" d="M13.0084 9.41718C12.6478 9.80686 12.4395 10.4023 12.4395 11.1816V38.8239C12.4395 39.6033 12.6478 40.1987 13.0208 40.5728L13.1172 40.657L28.5628 25.1696V24.8235L13.1048 9.33301L13.0084 9.41718Z" fill="url(#paint0_linear_758_1695)"/>
<path fill-rule="evenodd" clip-rule="evenodd" d="M33.7025 30.3473L28.5508 25.1821V24.8205L33.7025 19.6553L33.8144 19.7239L39.9081 23.1964C41.6523 24.1815 41.6523 25.8086 39.9081 26.8061L33.8144 30.2787L33.7025 30.3473Z" fill="url(#paint1_linear_758_1695)"/>
<path fill-rule="evenodd" clip-rule="evenodd" d="M33.8134 30.2798L28.5498 25.002L13.0078 40.586C13.5768 41.197 14.5312 41.2656 15.5976 40.6702L33.8134 30.2798Z" fill="url(#paint2_linear_758_1695)"/>
<path fill-rule="evenodd" clip-rule="evenodd" d="M33.8134 19.7228L15.5976 9.34803C14.5312 8.73702 13.5737 8.82119 13.0078 9.4322L28.5498 25.0007L33.8134 19.7228Z" fill="url(#paint3_linear_758_1695)"/>
<path opacity="0.2" fill-rule="evenodd" clip-rule="evenodd" d="M33.7008 30.168L15.6094 40.4734C14.5989 41.0563 13.6973 41.0158 13.1159 40.4859L13.0195 40.5825L13.1159 40.6667C13.6973 41.1935 14.5989 41.2371 15.6094 40.6542L33.8252 30.2802L33.7008 30.168Z" fill="black"/>
<path opacity="0.12" fill-rule="evenodd" clip-rule="evenodd" d="M39.9067 26.626L33.6855 30.1672L33.7975 30.2794L39.8911 26.8068C40.7648 26.3081 41.1938 25.6534 41.1938 25.002C41.141 25.6005 40.6964 26.1678 39.9067 26.626Z" fill="black"/>
<path opacity="0.25" fill-rule="evenodd" clip-rule="evenodd" d="M15.5982 9.52941L39.9076 23.377C40.6973 23.8228 41.1419 24.4058 41.2103 25.0012C41.2103 24.3497 40.7813 23.695 39.9076 23.1962L15.5982 9.34859C13.8541 8.3479 12.4395 9.18337 12.4395 11.1816V11.3625C12.4395 9.36106 13.8541 8.54118 15.5982 9.52941Z" fill="white"/>
<defs>
<linearGradient id="paint0_linear_758_1695" x1="27.1774" y1="10.8834" x2="2.42734" y2="17.4603" gradientUnits="userSpaceOnUse">
<stop stop-color="#00A0FF"/>
<stop offset="0.00657" stop-color="#00A1FF"/>
<stop offset="0.2601" stop-color="#00BEFF"/>
<stop offset="0.5122" stop-color="#00D2FF"/>
<stop offset="0.7604" stop-color="#00DFFF"/>
<stop offset="1" stop-color="#00E3FF"/>
</linearGradient>
<linearGradient id="paint1_linear_758_1695" x1="42.1826" y1="25.0013" x2="12.0158" y2="25.0013" gradientUnits="userSpaceOnUse">
<stop stop-color="#FFE000"/>
<stop offset="0.4087" stop-color="#FFBD00"/>
<stop offset="0.7754" stop-color="#FFA500"/>
<stop offset="1" stop-color="#FF9C00"/>
</linearGradient>
<linearGradient id="paint2_linear_758_1695" x1="30.9512" y1="27.8738" x2="11.0097" y2="61.3465" gradientUnits="userSpaceOnUse">
<stop stop-color="#FF3A44"/>
<stop offset="1" stop-color="#C31162"/>
</linearGradient>
<linearGradient id="paint3_linear_758_1695" x1="9.09417" y1="0.22236" x2="17.9909" y2="15.1718" gradientUnits="userSpaceOnUse">
<stop stop-color="#32A071"/>
<stop offset="0.0685" stop-color="#2DA771"/>
<stop offset="0.4762" stop-color="#15CF74"/>
<stop offset="0.8009" stop-color="#06E775"/>
<stop offset="1" stop-color="#00F076"/>
</linearGradient>
</defs>
</svg>
