<svg width="536" height="79" viewBox="0 0 536 79" fill="none" xmlns="http://www.w3.org/2000/svg">
<g filter="url(#filter0_d_803_694)">
<path d="M24.342 6.36137C24.2689 7.11853 24.2141 7.84987 24.1775 8.55541C24.1592 9.26094 24.1501 9.803 24.1501 10.1816C24.1501 10.5257 24.1592 10.8527 24.1775 11.1624C24.1958 11.4722 24.2141 11.7303 24.2324 11.9368H23.6016C23.364 10.6806 23.0349 9.69114 22.6144 8.9684C22.2122 8.22845 21.7186 7.71221 21.1336 7.41967C20.5486 7.10992 19.8722 6.95505 19.1043 6.95505H18.3091C17.7606 6.95505 17.3493 6.99807 17.075 7.08411C16.8191 7.17015 16.6454 7.34224 16.554 7.60036C16.4626 7.84127 16.4169 8.23706 16.4169 8.78772V21.9003C16.4169 22.4854 16.4535 22.9414 16.5266 23.2684C16.5997 23.5781 16.746 23.8018 16.9654 23.9395C17.203 24.0599 17.5412 24.1202 17.98 24.1202C18.8941 24.1202 19.5979 23.9309 20.0915 23.5523C20.5851 23.1565 20.9325 22.5972 21.1336 21.8745C21.3347 21.1518 21.4352 20.3 21.4352 19.3191C21.4352 18.3038 21.3164 17.4176 21.0788 16.6604C20.8594 15.9033 20.4663 15.3182 19.8996 14.9052C19.3328 14.475 18.5284 14.2599 17.4864 14.2599C17.2304 14.2599 16.9196 14.2599 16.554 14.2599C16.2067 14.2599 15.8593 14.2685 15.512 14.2857C15.1829 14.2857 14.8904 14.2857 14.6344 14.2857V13.7695C15.256 13.7695 15.8684 13.7695 16.4717 13.7695C17.0933 13.7523 17.6144 13.7437 18.0348 13.7437C19.5157 13.7437 20.768 13.8985 21.7917 14.2083C22.8155 14.518 23.6291 14.931 24.2324 15.4473C24.8539 15.9463 25.3018 16.5228 25.5761 17.1767C25.8503 17.8306 25.9874 18.5103 25.9874 19.2158C25.9874 19.9558 25.8412 20.6527 25.5486 21.3066C25.2561 21.9605 24.79 22.537 24.1501 23.036C23.5285 23.5351 22.7241 23.9223 21.7369 24.1976C20.7497 24.4729 19.5614 24.6106 18.172 24.6106C17.7149 24.6106 17.1573 24.602 16.4992 24.5848C15.841 24.5676 15.0092 24.559 14.0037 24.559C13.3456 24.559 12.6234 24.5676 11.8373 24.5848C11.0695 24.5848 10.457 24.602 10 24.6364V24.1202C10.5667 24.0857 10.9964 24.0169 11.2889 23.9137C11.5997 23.8104 11.8008 23.6039 11.8922 23.2942C12.0019 22.9844 12.0567 22.5198 12.0567 21.9003V9.09746C12.0567 8.46076 12.0019 7.99614 11.8922 7.70361C11.8008 7.39386 11.6088 7.18736 11.3163 7.08411C11.0238 6.96366 10.585 6.89482 10 6.87762V6.36137C10.7496 6.37858 11.5448 6.39579 12.3858 6.413C13.2267 6.413 14.0586 6.4216 14.8812 6.43881C15.7039 6.43881 16.4717 6.43881 17.1847 6.43881C17.8977 6.43881 18.4827 6.43881 18.9398 6.43881C19.7259 6.43881 20.6217 6.43881 21.6272 6.43881C22.6327 6.4216 23.5377 6.39579 24.342 6.36137Z" fill="url(#paint0_linear_803_694)"/>
<path d="M43.0014 6.36137C42.9283 7.11853 42.8735 7.84987 42.8369 8.55541C42.8186 9.26094 42.8095 9.803 42.8095 10.1816C42.8095 10.5257 42.8186 10.8527 42.8369 11.1624C42.8552 11.4722 42.8735 11.7303 42.8918 11.9368H42.261C42.0782 10.6806 41.7949 9.69114 41.4109 8.9684C41.027 8.22845 40.5243 7.71221 39.9027 7.41967C39.2994 7.10992 38.5864 6.95505 37.7637 6.95505H36.6394C36.1092 6.95505 35.707 6.99807 35.4328 7.08411C35.1586 7.17015 34.9758 7.34224 34.8843 7.60036C34.7929 7.85848 34.7472 8.25427 34.7472 8.78772V22.2101C34.7472 22.7435 34.7929 23.1393 34.8843 23.3974C34.9758 23.6555 35.1586 23.8276 35.4328 23.9137C35.707 23.9997 36.1092 24.0427 36.6394 24.0427H37.9831C38.8058 24.0427 39.5279 23.8792 40.1495 23.5523C40.7894 23.2081 41.3287 22.6317 41.7674 21.8229C42.2245 21.0141 42.5718 19.9214 42.8095 18.5447H43.4402C43.3854 19.0954 43.3579 19.8181 43.3579 20.7129C43.3579 21.1087 43.3671 21.668 43.3854 22.3907C43.4037 23.1135 43.4585 23.862 43.5499 24.6364C42.6175 24.602 41.5663 24.5848 40.3963 24.5848C39.2263 24.5676 38.1842 24.559 37.2701 24.559C36.8131 24.559 36.2281 24.559 35.5151 24.559C34.8021 24.559 34.0342 24.5676 33.2116 24.5848C32.3889 24.5848 31.5571 24.5934 30.7161 24.6106C29.8751 24.6106 29.0799 24.6192 28.3303 24.6364V24.1202C28.9153 24.0857 29.3541 24.0169 29.6466 23.9137C29.9391 23.8104 30.1311 23.6039 30.2225 23.2942C30.3322 22.9844 30.387 22.5198 30.387 21.9003V9.09746C30.387 8.46076 30.3322 7.99614 30.2225 7.70361C30.1311 7.39386 29.93 7.18736 29.6192 7.08411C29.3267 6.96366 28.8971 6.89482 28.3303 6.87762V6.36137C29.0799 6.37858 29.8751 6.39579 30.7161 6.413C31.5571 6.413 32.3889 6.4216 33.2116 6.43881C34.0342 6.43881 34.8021 6.43881 35.5151 6.43881C36.2281 6.43881 36.8131 6.43881 37.2701 6.43881C38.1111 6.43881 39.0617 6.43881 40.1221 6.43881C41.2007 6.4216 42.1605 6.39579 43.0014 6.36137ZM38.7235 15.1891C38.7235 15.1891 38.7235 15.2752 38.7235 15.4473C38.7235 15.6193 38.7235 15.7054 38.7235 15.7054H33.9246C33.9246 15.7054 33.9246 15.6193 33.9246 15.4473C33.9246 15.2752 33.9246 15.1891 33.9246 15.1891H38.7235ZM39.5188 11.7819C39.4456 12.7628 39.4091 13.5113 39.4091 14.0276C39.4274 14.5438 39.4365 15.0171 39.4365 15.4473C39.4365 15.8775 39.4456 16.3507 39.4639 16.8669C39.4822 17.3832 39.5279 18.1317 39.601 19.1126H38.9703C38.8789 18.5103 38.7052 17.951 38.4493 17.4348C38.2116 16.9186 37.8643 16.5056 37.4072 16.1958C36.9502 15.8689 36.356 15.7054 35.6248 15.7054V15.1891C36.1732 15.1891 36.6394 15.0859 37.0233 14.8794C37.4072 14.6557 37.718 14.3718 37.9557 14.0276C38.2116 13.6662 38.4127 13.2876 38.559 12.8919C38.7052 12.4961 38.8149 12.1261 38.8881 11.7819H39.5188Z" fill="url(#paint1_linear_803_694)"/>
<path d="M64.2482 6.36137V6.87762C63.6266 6.89482 63.1513 6.96366 62.8222 7.08411C62.5115 7.18736 62.3012 7.39386 62.1915 7.70361C62.0818 7.99614 62.027 8.46076 62.027 9.09746V21.9003C62.027 22.5198 62.0818 22.9844 62.1915 23.2942C62.3012 23.6039 62.5115 23.8104 62.8222 23.9137C63.1513 24.0169 63.6266 24.0857 64.2482 24.1202V24.6364C63.7546 24.602 63.1056 24.5848 62.3012 24.5848C61.5151 24.5676 60.6741 24.559 59.7783 24.559C58.9191 24.559 58.0781 24.5676 57.2554 24.5848C56.4328 24.5848 55.7563 24.602 55.2262 24.6364V24.1202C55.9026 24.0857 56.4145 24.0169 56.7618 23.9137C57.1275 23.8104 57.3651 23.6039 57.4748 23.2942C57.6028 22.9844 57.6668 22.5198 57.6668 21.9003V9.09746C57.6668 8.46076 57.6028 7.98754 57.4748 7.67779C57.3651 7.36805 57.164 7.16155 56.8715 7.0583C56.5973 6.93784 56.2317 6.87762 55.7746 6.87762H55.5827C55.1439 6.87762 54.7874 6.93784 54.5132 7.0583C54.2572 7.16155 54.0653 7.37665 53.9373 7.70361C53.8276 8.01335 53.7453 8.47797 53.6905 9.09746C53.5991 10.1127 53.5077 11.2055 53.4163 12.3756C53.3431 13.5458 53.2426 14.7245 53.1146 15.9119C52.9867 17.0992 52.8038 18.235 52.5662 19.3191C52.3468 20.4032 52.0451 21.3755 51.6612 22.2359C51.2773 23.0791 50.7837 23.7502 50.1804 24.2492C49.5771 24.7483 48.8367 24.9978 47.9592 24.9978C47.1365 24.9978 46.4235 24.7827 45.8202 24.3525C45.2352 23.9051 44.9427 23.32 44.9427 22.5972C44.9427 21.9261 45.1803 21.3927 45.6557 20.9969C46.1493 20.6011 46.7434 20.4032 47.4381 20.4032C48.0414 20.4032 48.5259 20.5495 48.8915 20.842C49.2755 21.1173 49.4674 21.5045 49.4674 22.0036C49.4674 22.6058 49.2572 23.1135 48.8367 23.5265C48.4345 23.9223 47.9135 24.2062 47.2736 24.3783C47.365 24.4299 47.4656 24.4643 47.5752 24.4815C47.7032 24.4987 47.8312 24.5073 47.9592 24.5073C48.8001 24.5073 49.504 24.2062 50.0707 23.6039C50.6374 23.0016 51.0945 22.1842 51.4418 21.1518C51.8075 20.1021 52.0908 18.9147 52.2919 17.5897C52.493 16.2647 52.6484 14.8794 52.7581 13.4339C52.8678 11.9712 52.9684 10.5257 53.0598 9.09746C53.1146 8.49518 53.0872 8.03916 52.9775 7.72942C52.8861 7.41967 52.6667 7.20457 52.3194 7.08411C51.9903 6.96366 51.4967 6.89482 50.8385 6.87762V6.36137C51.2225 6.37858 51.6795 6.39579 52.2097 6.413C52.7398 6.4302 53.2243 6.43881 53.6631 6.43881C54.0836 6.43881 54.4858 6.4302 54.8697 6.413C55.2719 6.37858 55.6741 6.36137 56.0763 6.36137C56.771 6.36137 57.4017 6.37858 57.9684 6.413C58.5352 6.4302 59.2116 6.43881 59.9977 6.43881C60.4548 6.43881 60.9484 6.43881 61.4785 6.43881C62.027 6.4216 62.5389 6.413 63.0142 6.413C63.5078 6.39579 63.9192 6.37858 64.2482 6.36137Z" fill="url(#paint2_linear_803_694)"/>
<path d="M76.2844 6C78.2223 6 79.9133 6.36998 81.3576 7.10993C82.8201 7.84988 83.9536 8.91678 84.758 10.3106C85.5624 11.6873 85.9646 13.3651 85.9646 15.344C85.9646 17.2713 85.5533 18.9577 84.7306 20.4032C83.9079 21.8487 82.7562 22.9758 81.2753 23.7846C79.8128 24.5934 78.14 24.9978 76.257 24.9978C74.3191 24.9978 72.6189 24.6278 71.1564 23.8879C69.7121 23.1479 68.5878 22.081 67.7834 20.6871C66.979 19.2933 66.5768 17.6155 66.5768 15.6538C66.5768 13.7265 66.9881 12.0401 67.8108 10.5946C68.6518 9.14909 69.7944 8.02196 71.2386 7.21317C72.7012 6.40439 74.3831 6 76.2844 6ZM76.1747 6.46462C75.1509 6.46462 74.2551 6.8518 73.4873 7.62617C72.7378 8.40054 72.1527 9.46744 71.7323 10.8269C71.3301 12.1863 71.129 13.7609 71.129 15.5505C71.129 17.3746 71.3575 18.9663 71.8145 20.3258C72.2898 21.668 72.9206 22.7091 73.7067 23.449C74.5111 24.1718 75.3978 24.5332 76.3667 24.5332C77.3905 24.5332 78.2771 24.146 79.0267 23.3716C79.7945 22.5972 80.3795 21.5303 80.7817 20.1709C81.2022 18.7942 81.4125 17.2197 81.4125 15.4473C81.4125 13.606 81.1748 12.0142 80.6995 10.672C80.2424 9.32977 79.6117 8.29729 78.8073 7.57455C78.0212 6.8346 77.1437 6.46462 76.1747 6.46462Z" fill="url(#paint3_linear_803_694)"/>
<path d="M88.4095 6.36137C88.8666 6.37858 89.479 6.39579 90.2468 6.413C91.0329 6.4302 91.8099 6.43881 92.5778 6.43881C93.4553 6.43881 94.3054 6.4302 95.1281 6.413C95.9507 6.39579 96.5358 6.38718 96.8831 6.38718C99.4243 6.38718 101.326 6.86041 102.587 7.80686C103.848 8.7533 104.479 9.97508 104.479 11.4722C104.479 12.0917 104.351 12.7456 104.095 13.4339C103.839 14.105 103.401 14.7331 102.779 15.3182C102.176 15.8861 101.344 16.3507 100.284 16.7121C99.2232 17.0734 97.8886 17.2541 96.2798 17.2541H93.4827V16.7379H96.0056C97.0842 16.7379 97.8977 16.5056 98.4462 16.0409C99.0129 15.5763 99.3969 14.9654 99.598 14.2083C99.8173 13.4511 99.927 12.6337 99.927 11.7561C99.927 10.1213 99.6711 8.89957 99.1592 8.09079C98.6473 7.28201 97.7698 6.87762 96.5266 6.87762C95.8136 6.87762 95.3474 7.02389 95.1281 7.31642C94.927 7.60896 94.8264 8.20264 94.8264 9.09746V21.7454C94.8264 22.4166 94.8995 22.9156 95.0458 23.2425C95.192 23.5695 95.4754 23.7846 95.8959 23.8879C96.3164 23.9911 96.938 24.0513 97.7606 24.0685V24.6364C97.1939 24.6192 96.4626 24.602 95.5668 24.5848C94.671 24.5676 93.7295 24.559 92.7423 24.559C91.9562 24.559 91.1883 24.5676 90.4388 24.5848C89.6892 24.602 89.0128 24.6192 88.4095 24.6364V24.1202C88.9945 24.0857 89.4333 24.0169 89.7258 23.9137C90.0183 23.8104 90.2103 23.6039 90.3017 23.2942C90.4114 22.9844 90.4662 22.5198 90.4662 21.9003V9.09746C90.4662 8.46076 90.4114 7.99614 90.3017 7.70361C90.2103 7.39386 90.0092 7.18736 89.6984 7.08411C89.4059 6.96366 88.9762 6.89482 88.4095 6.87762V6.36137Z" fill="url(#paint4_linear_803_694)"/>
<path d="M123.996 6.36137V6.87762C123.594 7.01528 123.192 7.31642 122.79 7.78104C122.388 8.24566 121.921 8.93399 121.391 9.84602L115.413 21.1518L114.782 21.2808L107.022 8.45216C106.674 7.88429 106.354 7.4885 106.062 7.2648C105.769 7.04109 105.486 6.91203 105.212 6.87762V6.36137C105.468 6.37858 105.806 6.39579 106.227 6.413C106.665 6.413 107.122 6.4216 107.598 6.43881C108.073 6.43881 108.493 6.43881 108.859 6.43881C109.28 6.43881 109.764 6.43881 110.312 6.43881C110.879 6.4216 111.428 6.413 111.958 6.413C112.488 6.39579 112.909 6.37858 113.219 6.36137V6.87762C112.872 6.89482 112.561 6.96366 112.287 7.08411C112.031 7.20457 111.876 7.41967 111.821 7.72942C111.766 8.02196 111.866 8.42635 112.122 8.94259L117.113 17.2799L115.962 18.9577L119.746 11.7561C120.422 10.5171 120.779 9.54488 120.815 8.83934C120.852 8.13381 120.66 7.63477 120.24 7.34224C119.819 7.0497 119.234 6.89482 118.484 6.87762V6.36137C119.106 6.37858 119.691 6.39579 120.24 6.413C120.788 6.4302 121.336 6.43881 121.885 6.43881C122.305 6.43881 122.689 6.4302 123.037 6.413C123.402 6.39579 123.722 6.37858 123.996 6.36137ZM115.468 19.8611L115.989 20.0676L114.7 22.5198C114.462 22.9672 114.252 23.32 114.069 23.5781C113.887 23.8362 113.695 24.0599 113.494 24.2492C113.201 24.5246 112.845 24.7138 112.424 24.8171C112.022 24.9375 111.611 24.9978 111.19 24.9978C110.258 24.9978 109.517 24.7913 108.969 24.3783C108.42 23.9653 108.146 23.4576 108.146 22.8554C108.146 22.2359 108.384 21.7454 108.859 21.3841C109.334 21.0055 109.91 20.8162 110.587 20.8162C111.281 20.8162 111.848 20.9625 112.287 21.255C112.726 21.5303 112.945 21.9347 112.945 22.4682C112.945 22.95 112.762 23.3544 112.397 23.6814C112.049 24.0083 111.62 24.2492 111.108 24.4041C111.163 24.4385 111.236 24.4643 111.327 24.4815C111.419 24.4815 111.528 24.4815 111.656 24.4815C112.186 24.4815 112.643 24.3094 113.027 23.9653C113.43 23.6039 113.795 23.1049 114.124 22.4682L115.468 19.8611Z" fill="url(#paint5_linear_803_694)"/>
<path d="M134.114 6C135.321 6 136.308 6.17208 137.076 6.51625C137.862 6.8432 138.557 7.23038 139.16 7.67779C139.525 7.93592 139.8 7.97033 139.983 7.78104C140.184 7.57454 140.321 7.10132 140.394 6.36137H141.025C140.988 7.03249 140.961 7.84988 140.942 8.81353C140.924 9.75998 140.915 11.0248 140.915 12.6079H140.284C140.193 11.8163 140.074 11.1452 139.928 10.5946C139.781 10.0267 139.58 9.52767 139.324 9.09746C139.068 8.66726 138.703 8.28008 138.227 7.93592C137.77 7.50571 137.24 7.18736 136.637 6.98086C136.034 6.77437 135.403 6.67112 134.745 6.67112C133.758 6.67112 132.917 6.92064 132.222 7.41967C131.527 7.9015 130.96 8.56401 130.522 9.40721C130.101 10.2504 129.79 11.2055 129.589 12.2724C129.388 13.3221 129.288 14.4148 129.288 15.5505C129.288 16.7035 129.388 17.8134 129.589 18.8803C129.809 19.93 130.138 20.8678 130.577 21.6938C131.034 22.5198 131.619 23.1737 132.332 23.6555C133.045 24.1374 133.886 24.3783 134.854 24.3783C135.458 24.3783 136.061 24.275 136.664 24.0685C137.286 23.8448 137.816 23.5265 138.255 23.1135C138.968 22.5972 139.452 21.9605 139.708 21.2034C139.964 20.429 140.156 19.4051 140.284 18.1317H140.915C140.915 19.7665 140.924 21.0915 140.942 22.1068C140.961 23.1049 140.988 23.9481 141.025 24.6364H140.394C140.321 23.8965 140.193 23.4318 140.01 23.2425C139.845 23.0533 139.562 23.0791 139.16 23.32C138.483 23.7674 137.761 24.1632 136.993 24.5073C136.244 24.8343 135.275 24.9978 134.087 24.9978C132.149 24.9978 130.449 24.6278 128.986 23.8879C127.542 23.1479 126.417 22.081 125.613 20.6871C124.809 19.2933 124.406 17.6155 124.406 15.6538C124.406 13.7265 124.818 12.0401 125.64 10.5946C126.481 9.14909 127.624 8.02196 129.068 7.21317C130.531 6.40439 132.213 6 134.114 6Z" fill="url(#paint6_linear_803_694)"/>
<path d="M153.998 6C155.204 6 156.191 6.17208 156.959 6.51625C157.745 6.8432 158.44 7.23038 159.043 7.67779C159.409 7.93592 159.683 7.97033 159.866 7.78104C160.067 7.57454 160.204 7.10132 160.277 6.36137H160.908C160.872 7.03249 160.844 7.84988 160.826 8.81353C160.808 9.75998 160.798 11.0248 160.798 12.6079H160.168C160.076 11.8163 159.958 11.1452 159.811 10.5946C159.665 10.0267 159.464 9.52767 159.208 9.09746C158.952 8.66726 158.586 8.28008 158.111 7.93592C157.654 7.50571 157.124 7.18736 156.521 6.98086C155.917 6.77437 155.287 6.67112 154.628 6.67112C153.641 6.67112 152.8 6.92064 152.105 7.41967C151.411 7.9015 150.844 8.56401 150.405 9.40721C149.985 10.2504 149.674 11.2055 149.473 12.2724C149.272 13.3221 149.171 14.4148 149.171 15.5505C149.171 16.7035 149.272 17.8134 149.473 18.8803C149.692 19.93 150.021 20.8678 150.46 21.6938C150.917 22.5198 151.502 23.1737 152.215 23.6555C152.928 24.1374 153.769 24.3783 154.738 24.3783C155.341 24.3783 155.945 24.275 156.548 24.0685C157.17 23.8448 157.7 23.5265 158.138 23.1135C158.851 22.5972 159.336 21.9605 159.592 21.2034C159.848 20.429 160.04 19.4051 160.168 18.1317H160.798C160.798 19.7665 160.808 21.0915 160.826 22.1068C160.844 23.1049 160.872 23.9481 160.908 24.6364H160.277C160.204 23.8965 160.076 23.4318 159.894 23.2425C159.729 23.0533 159.446 23.0791 159.043 23.32C158.367 23.7674 157.645 24.1632 156.877 24.5073C156.127 24.8343 155.159 24.9978 153.97 24.9978C152.032 24.9978 150.332 24.6278 148.87 23.8879C147.425 23.1479 146.301 22.081 145.497 20.6871C144.692 19.2933 144.29 17.6155 144.29 15.6538C144.29 13.7265 144.701 12.0401 145.524 10.5946C146.365 9.14909 147.508 8.02196 148.952 7.21317C150.414 6.40439 152.096 6 153.998 6Z" fill="url(#paint7_linear_803_694)"/>
<path d="M172.4 6.36137V6.87762C171.815 6.89482 171.367 6.96366 171.057 7.08411C170.764 7.18736 170.572 7.39386 170.481 7.70361C170.389 7.99614 170.344 8.46076 170.344 9.09746V21.9003C170.344 22.5198 170.389 22.9844 170.481 23.2942C170.59 23.6039 170.792 23.8104 171.084 23.9137C171.377 24.0169 171.815 24.0857 172.4 24.1202V24.6364C171.907 24.602 171.285 24.5848 170.536 24.5848C169.786 24.5676 169.027 24.559 168.26 24.559C167.382 24.559 166.55 24.5676 165.764 24.5848C164.996 24.5848 164.384 24.602 163.927 24.6364V24.1202C164.512 24.0857 164.951 24.0169 165.243 23.9137C165.536 23.8104 165.728 23.6039 165.819 23.2942C165.929 22.9844 165.983 22.5198 165.983 21.9003V9.09746C165.983 8.46076 165.929 7.99614 165.819 7.70361C165.728 7.39386 165.526 7.18736 165.216 7.08411C164.923 6.96366 164.494 6.89482 163.927 6.87762V6.36137C164.384 6.37858 164.996 6.39579 165.764 6.413C166.55 6.4302 167.382 6.43881 168.26 6.43881C169.027 6.43881 169.786 6.4302 170.536 6.413C171.285 6.39579 171.907 6.37858 172.4 6.36137ZM171.139 14.8794C172.601 14.8794 173.872 14.9826 174.951 15.1891C176.048 15.3784 176.925 15.7312 177.583 16.2474C178.26 16.7465 178.717 17.4864 178.954 18.4673L179.75 21.9261C179.896 22.6317 180.06 23.1221 180.243 23.3974C180.426 23.6555 180.7 23.7846 181.066 23.7846C181.285 23.7674 181.468 23.7158 181.614 23.6297C181.779 23.5265 181.953 23.3802 182.135 23.1909L182.519 23.5007C182.026 24.0169 181.496 24.3955 180.929 24.6364C180.362 24.8773 179.677 24.9978 178.872 24.9978C177.885 24.9978 177.071 24.8085 176.432 24.4299C175.792 24.0341 175.371 23.2942 175.17 22.2101L174.43 18.2608C174.302 17.5725 174.11 17.0132 173.854 16.583C173.616 16.1528 173.25 15.8344 172.757 15.6279C172.263 15.4215 171.578 15.3182 170.7 15.3182H169.631V14.8794H171.139ZM170.234 15.3182V14.8794C171.02 14.8622 171.733 14.6643 172.373 14.2857C173.013 13.8899 173.698 13.2876 174.43 12.4789L176.048 10.6462C176.761 9.87183 177.172 9.20932 177.282 8.65866C177.391 8.09079 177.272 7.65198 176.925 7.34224C176.578 7.03249 176.038 6.86901 175.307 6.8518V6.36137C175.746 6.37858 176.176 6.39579 176.596 6.413C177.017 6.413 177.446 6.4216 177.885 6.43881C178.324 6.43881 178.808 6.43881 179.338 6.43881C179.887 6.43881 180.371 6.4302 180.792 6.413C181.23 6.39579 181.614 6.37858 181.943 6.36137V6.8518C181.34 6.97226 180.709 7.21317 180.051 7.57455C179.393 7.93592 178.689 8.52099 177.94 9.32977L172.51 15.3182H170.234Z" fill="url(#paint8_linear_803_694)"/>
<path d="M193.398 6.30975L200.062 22.4682C200.318 23.0877 200.601 23.5179 200.912 23.7588C201.241 23.9825 201.533 24.103 201.789 24.1202V24.6364C201.241 24.602 200.592 24.5848 199.842 24.5848C199.111 24.5676 198.371 24.559 197.621 24.559C196.78 24.559 195.985 24.5676 195.235 24.5848C194.486 24.5848 193.892 24.602 193.453 24.6364V24.1202C194.385 24.0857 194.97 23.9395 195.208 23.6814C195.464 23.406 195.409 22.8296 195.043 21.9519L190.382 9.94927L190.875 9.27815L186.707 19.4998C186.305 20.4462 186.058 21.2206 185.966 21.8229C185.893 22.4252 185.939 22.8898 186.104 23.2167C186.286 23.5437 186.57 23.776 186.954 23.9137C187.356 24.0341 187.831 24.103 188.38 24.1202V24.6364C187.776 24.602 187.2 24.5848 186.652 24.5848C186.104 24.5676 185.546 24.559 184.979 24.559C184.577 24.559 184.193 24.5676 183.827 24.5848C183.48 24.5848 183.169 24.602 182.895 24.6364V24.1202C183.279 24.0513 183.672 23.819 184.074 23.4232C184.476 23.0274 184.87 22.3563 185.253 21.4099L191.506 6.30975C191.798 6.32696 192.109 6.33556 192.438 6.33556C192.786 6.33556 193.105 6.32696 193.398 6.30975ZM195.318 17.2025V17.7187H187.146L187.42 17.2025H195.318Z" fill="url(#paint9_linear_803_694)"/>
<path d="M220.354 6.36137V6.87762C219.769 6.89482 219.331 6.96366 219.038 7.08411C218.745 7.18736 218.544 7.39386 218.435 7.70361C218.343 7.99614 218.298 8.46076 218.298 9.09746V21.9003C218.298 22.5198 218.343 22.9844 218.435 23.2942C218.544 23.6039 218.745 23.8104 219.038 23.9137C219.331 24.0169 219.769 24.0857 220.354 24.1202V24.6364C219.897 24.602 219.276 24.5848 218.49 24.5848C217.722 24.5676 216.899 24.559 216.021 24.559C215.272 24.559 214.513 24.5676 213.745 24.5848C212.978 24.5848 212.356 24.602 211.881 24.6364V24.1202C212.447 24.0857 212.877 24.0169 213.17 23.9137C213.48 23.8104 213.681 23.6039 213.773 23.2942C213.883 22.9844 213.937 22.5198 213.937 21.9003V9.09746C213.937 8.20264 213.828 7.60896 213.608 7.31642C213.407 7.02389 212.95 6.87762 212.237 6.87762C210.994 6.87762 210.116 7.24759 209.605 7.98754C209.093 8.72749 208.837 9.75998 208.837 11.085C208.837 11.8938 208.937 12.6337 209.138 13.3049C209.34 13.9588 209.723 14.4836 210.29 14.8794C210.857 15.258 211.68 15.4473 212.758 15.4473H215.117C215.117 15.4473 215.117 15.5333 215.117 15.7054C215.117 15.8775 215.117 15.9635 215.117 15.9635H212.484C210.857 15.9635 209.513 15.8258 208.453 15.5505C207.392 15.2752 206.552 14.9052 205.93 14.4406C205.327 13.976 204.897 13.4511 204.641 12.866C204.403 12.281 204.285 11.6701 204.285 11.0334C204.285 10.0525 204.559 9.21792 205.107 8.5296C205.674 7.82406 206.515 7.29061 207.63 6.92924C208.764 6.56787 210.18 6.38718 211.881 6.38718C212.228 6.38718 212.804 6.39579 213.608 6.413C214.431 6.4302 215.29 6.43881 216.186 6.43881C216.954 6.43881 217.722 6.4302 218.49 6.413C219.276 6.39579 219.897 6.37858 220.354 6.36137ZM214.952 15.5247L214.897 15.9635H211.936C211.369 15.9635 210.921 16.127 210.592 16.4539C210.281 16.7637 210.034 17.1939 209.851 17.7445C209.669 18.278 209.513 18.9061 209.385 19.6288L208.892 22.2101C208.691 23.277 208.27 24.0083 207.63 24.4041C206.99 24.7999 206.186 24.9978 205.217 24.9978C204.431 24.9978 203.754 24.8773 203.188 24.6364C202.621 24.4127 202.1 24.0341 201.625 23.5007L202.008 23.1909C202.191 23.3802 202.356 23.5265 202.502 23.6297C202.667 23.7158 202.868 23.7674 203.105 23.7846C203.453 23.7846 203.718 23.6469 203.901 23.3716C204.083 23.0963 204.248 22.6144 204.394 21.9261L204.97 19.2675C205.208 18.1661 205.747 17.3746 206.588 16.8927C207.429 16.4109 208.636 16.0754 210.208 15.8861C210.555 15.8344 210.903 15.7914 211.25 15.757C211.597 15.7226 212.054 15.6882 212.621 15.6538C213.206 15.6021 213.983 15.5591 214.952 15.5247Z" fill="url(#paint10_linear_803_694)"/>
<path d="M229.696 6.36137C230.153 6.37858 230.766 6.39579 231.534 6.413C232.32 6.4302 233.097 6.43881 233.864 6.43881C234.742 6.43881 235.592 6.4302 236.415 6.413C237.237 6.39579 237.822 6.38718 238.17 6.38718C240.711 6.38718 242.612 6.86041 243.874 7.80686C245.135 8.7533 245.766 9.97508 245.766 11.4722C245.766 12.0917 245.638 12.7456 245.382 13.4339C245.126 14.105 244.687 14.7331 244.066 15.3182C243.462 15.8861 242.631 16.3507 241.57 16.7121C240.51 17.0734 239.175 17.2541 237.566 17.2541H234.769V16.7379H237.292C238.371 16.7379 239.184 16.5056 239.733 16.0409C240.3 15.5763 240.684 14.9654 240.885 14.2083C241.104 13.4511 241.214 12.6337 241.214 11.7561C241.214 10.1213 240.958 8.89957 240.446 8.09079C239.934 7.28201 239.056 6.87762 237.813 6.87762C237.1 6.87762 236.634 7.02389 236.415 7.31642C236.214 7.60896 236.113 8.20264 236.113 9.09746V21.7454C236.113 22.4166 236.186 22.9156 236.332 23.2425C236.479 23.5695 236.762 23.7846 237.183 23.8879C237.603 23.9911 238.225 24.0513 239.047 24.0685V24.6364C238.481 24.6192 237.749 24.602 236.853 24.5848C235.958 24.5676 235.016 24.559 234.029 24.559C233.243 24.559 232.475 24.5676 231.725 24.5848C230.976 24.602 230.299 24.6192 229.696 24.6364V24.1202C230.281 24.0857 230.72 24.0169 231.012 23.9137C231.305 23.8104 231.497 23.6039 231.588 23.2942C231.698 22.9844 231.753 22.5198 231.753 21.9003V9.09746C231.753 8.46076 231.698 7.99614 231.588 7.70361C231.497 7.39386 231.296 7.18736 230.985 7.08411C230.693 6.96366 230.263 6.89482 229.696 6.87762V6.36137Z" fill="url(#paint11_linear_803_694)"/>
<path d="M262.349 6.36137C262.276 7.11853 262.221 7.84987 262.185 8.55541C262.167 9.26094 262.158 9.803 262.158 10.1816C262.158 10.5257 262.167 10.8527 262.185 11.1624C262.203 11.4722 262.222 11.7303 262.24 11.9368H261.609C261.426 10.6806 261.143 9.69114 260.759 8.9684C260.375 8.22845 259.872 7.71221 259.251 7.41967C258.647 7.10992 257.934 6.95505 257.112 6.95505H255.987C255.457 6.95505 255.055 6.99807 254.781 7.08411C254.507 7.17015 254.324 7.34224 254.232 7.60036C254.141 7.85848 254.095 8.25427 254.095 8.78772V22.2101C254.095 22.7435 254.141 23.1393 254.232 23.3974C254.324 23.6555 254.507 23.8276 254.781 23.9137C255.055 23.9997 255.457 24.0427 255.987 24.0427H257.331C258.154 24.0427 258.876 23.8792 259.498 23.5523C260.137 23.2081 260.677 22.6317 261.115 21.8229C261.573 21.0141 261.92 19.9214 262.158 18.5447H262.788C262.733 19.0954 262.706 19.8181 262.706 20.7129C262.706 21.1087 262.715 21.668 262.733 22.3907C262.752 23.1135 262.807 23.862 262.898 24.6364C261.966 24.602 260.914 24.5848 259.744 24.5848C258.574 24.5676 257.532 24.559 256.618 24.559C256.161 24.559 255.576 24.559 254.863 24.559C254.15 24.559 253.382 24.5676 252.56 24.5848C251.737 24.5848 250.905 24.5934 250.064 24.6106C249.223 24.6106 248.428 24.6192 247.678 24.6364V24.1202C248.263 24.0857 248.702 24.0169 248.995 23.9137C249.287 23.8104 249.479 23.6039 249.571 23.2942C249.68 22.9844 249.735 22.5198 249.735 21.9003V9.09746C249.735 8.46076 249.68 7.99614 249.571 7.70361C249.479 7.39386 249.278 7.18736 248.967 7.08411C248.675 6.96366 248.245 6.89482 247.678 6.87762V6.36137C248.428 6.37858 249.223 6.39579 250.064 6.413C250.905 6.413 251.737 6.4216 252.56 6.43881C253.382 6.43881 254.15 6.43881 254.863 6.43881C255.576 6.43881 256.161 6.43881 256.618 6.43881C257.459 6.43881 258.41 6.43881 259.47 6.43881C260.549 6.4216 261.509 6.39579 262.349 6.36137ZM258.072 15.1891C258.072 15.1891 258.072 15.2752 258.072 15.4473C258.072 15.6193 258.072 15.7054 258.072 15.7054H253.273C253.273 15.7054 253.273 15.6193 253.273 15.4473C253.273 15.2752 253.273 15.1891 253.273 15.1891H258.072ZM258.867 11.7819C258.794 12.7628 258.757 13.5113 258.757 14.0276C258.775 14.5438 258.785 15.0171 258.785 15.4473C258.785 15.8775 258.794 16.3507 258.812 16.8669C258.83 17.3832 258.876 18.1317 258.949 19.1126H258.318C258.227 18.5103 258.053 17.951 257.797 17.4348C257.56 16.9186 257.212 16.5056 256.755 16.1958C256.298 15.8689 255.704 15.7054 254.973 15.7054V15.1891C255.521 15.1891 255.987 15.0859 256.371 14.8794C256.755 14.6557 257.066 14.3718 257.304 14.0276C257.56 13.6662 257.761 13.2876 257.907 12.8919C258.053 12.4961 258.163 12.1261 258.236 11.7819H258.867Z" fill="url(#paint12_linear_803_694)"/>
<path d="M275.561 6C276.768 6 277.755 6.17208 278.523 6.51625C279.309 6.8432 280.004 7.23038 280.607 7.67779C280.973 7.93592 281.247 7.97033 281.43 7.78104C281.631 7.57454 281.768 7.10132 281.841 6.36137H282.472C282.435 7.03249 282.408 7.84988 282.39 8.81353C282.371 9.75998 282.362 11.0248 282.362 12.6079H281.732C281.64 11.8163 281.521 11.1452 281.375 10.5946C281.229 10.0267 281.028 9.52767 280.772 9.09746C280.516 8.66726 280.15 8.28008 279.675 7.93592C279.218 7.50571 278.688 7.18736 278.084 6.98086C277.481 6.77437 276.85 6.67112 276.192 6.67112C275.205 6.67112 274.364 6.92064 273.669 7.41967C272.975 7.9015 272.408 8.56401 271.969 9.40721C271.549 10.2504 271.238 11.2055 271.037 12.2724C270.836 13.3221 270.735 14.4148 270.735 15.5505C270.735 16.7035 270.836 17.8134 271.037 18.8803C271.256 19.93 271.585 20.8678 272.024 21.6938C272.481 22.5198 273.066 23.1737 273.779 23.6555C274.492 24.1374 275.333 24.3783 276.302 24.3783C276.905 24.3783 277.508 24.275 278.112 24.0685C278.733 23.8448 279.264 23.5265 279.702 23.1135C280.415 22.5972 280.9 21.9605 281.156 21.2034C281.412 20.429 281.604 19.4051 281.732 18.1317H282.362C282.362 19.7665 282.371 21.0915 282.39 22.1068C282.408 23.1049 282.435 23.9481 282.472 24.6364H281.841C281.768 23.8965 281.64 23.4318 281.457 23.2425C281.293 23.0533 281.009 23.0791 280.607 23.32C279.931 23.7674 279.209 24.1632 278.441 24.5073C277.691 24.8343 276.722 24.9978 275.534 24.9978C273.596 24.9978 271.896 24.6278 270.433 23.8879C268.989 23.1479 267.865 22.081 267.06 20.6871C266.256 19.2933 265.854 17.6155 265.854 15.6538C265.854 13.7265 266.265 12.0401 267.088 10.5946C267.929 9.14909 269.071 8.02196 270.516 7.21317C271.978 6.40439 273.66 6 275.561 6Z" fill="url(#paint13_linear_803_694)"/>
<path d="M305.591 6.36137V6.87762C305.006 6.89482 304.568 6.96366 304.275 7.08411C303.983 7.18736 303.781 7.39386 303.672 7.70361C303.58 7.99614 303.535 8.46076 303.535 9.09746V21.9003C303.535 22.5198 303.58 22.9844 303.672 23.2942C303.781 23.6039 303.983 23.8104 304.275 23.9137C304.568 24.0169 305.006 24.0857 305.591 24.1202V24.6364C305.116 24.602 304.494 24.5848 303.727 24.5848C302.959 24.5676 302.136 24.559 301.259 24.559C300.491 24.559 299.723 24.5676 298.955 24.5848C298.206 24.5848 297.593 24.602 297.118 24.6364V24.1202C297.685 24.0857 298.114 24.0169 298.407 23.9137C298.717 23.8104 298.919 23.6039 299.01 23.2942C299.12 22.9844 299.174 22.5198 299.174 21.9003V9.09746C299.174 8.46076 299.12 7.98754 299.01 7.67779C298.9 7.36805 298.681 7.16155 298.352 7.0583C298.041 6.93784 297.575 6.87762 296.953 6.87762H294.129C293.507 6.87762 293.032 6.93784 292.703 7.0583C292.392 7.16155 292.182 7.36805 292.072 7.67779C291.962 7.98754 291.907 8.46076 291.907 9.09746V21.9003C291.907 22.5198 291.953 22.9844 292.045 23.2942C292.154 23.6039 292.355 23.8104 292.648 23.9137C292.94 24.0169 293.379 24.0857 293.964 24.1202V24.6364C293.471 24.602 292.849 24.5848 292.099 24.5848C291.35 24.5676 290.591 24.559 289.823 24.559C288.928 24.559 288.096 24.5676 287.328 24.5848C286.578 24.5848 285.966 24.602 285.491 24.6364V24.1202C286.057 24.0857 286.487 24.0169 286.779 23.9137C287.09 23.8104 287.291 23.6039 287.383 23.2942C287.492 22.9844 287.547 22.5198 287.547 21.9003V9.09746C287.547 8.46076 287.492 7.99614 287.383 7.70361C287.291 7.39386 287.09 7.18736 286.779 7.08411C286.487 6.96366 286.057 6.89482 285.491 6.87762V6.36137C285.966 6.37858 286.578 6.39579 287.328 6.413C288.096 6.4302 288.928 6.43881 289.823 6.43881C290.902 6.43881 291.971 6.4302 293.032 6.413C294.092 6.37858 294.942 6.36137 295.582 6.36137C296.222 6.36137 297.063 6.37858 298.105 6.413C299.147 6.4302 300.198 6.43881 301.259 6.43881C302.136 6.43881 302.959 6.4302 303.727 6.413C304.494 6.39579 305.116 6.37858 305.591 6.36137Z" fill="url(#paint14_linear_803_694)"/>
<path d="M325.55 6.36137V6.87762C325.148 7.01528 324.745 7.31642 324.343 7.78104C323.941 8.24566 323.475 8.93399 322.945 9.84602L316.966 21.1518L316.336 21.2808L308.575 8.45216C308.228 7.88429 307.908 7.4885 307.615 7.2648C307.323 7.04109 307.039 6.91203 306.765 6.87762V6.36137C307.021 6.37858 307.359 6.39579 307.78 6.413C308.219 6.413 308.676 6.4216 309.151 6.43881C309.626 6.43881 310.047 6.43881 310.412 6.43881C310.833 6.43881 311.317 6.43881 311.866 6.43881C312.433 6.4216 312.981 6.413 313.511 6.413C314.041 6.39579 314.462 6.37858 314.773 6.36137V6.87762C314.425 6.89482 314.114 6.96366 313.84 7.08411C313.584 7.20457 313.429 7.41967 313.374 7.72942C313.319 8.02196 313.42 8.42635 313.676 8.94259L318.667 17.2799L317.515 18.9577L321.299 11.7561C321.976 10.5171 322.332 9.54488 322.369 8.83934C322.405 8.13381 322.213 7.63477 321.793 7.34224C321.372 7.0497 320.787 6.89482 320.038 6.87762V6.36137C320.659 6.37858 321.244 6.39579 321.793 6.413C322.341 6.4302 322.89 6.43881 323.438 6.43881C323.859 6.43881 324.243 6.4302 324.59 6.413C324.956 6.39579 325.275 6.37858 325.55 6.36137ZM317.021 19.8611L317.542 20.0676L316.253 22.5198C316.016 22.9672 315.805 23.32 315.623 23.5781C315.44 23.8362 315.248 24.0599 315.047 24.2492C314.754 24.5246 314.398 24.7138 313.977 24.8171C313.575 24.9375 313.164 24.9978 312.743 24.9978C311.811 24.9978 311.071 24.7913 310.522 24.3783C309.974 23.9653 309.699 23.4576 309.699 22.8554C309.699 22.2359 309.937 21.7454 310.412 21.3841C310.888 21.0055 311.464 20.8162 312.14 20.8162C312.835 20.8162 313.401 20.9625 313.84 21.255C314.279 21.5303 314.498 21.9347 314.498 22.4682C314.498 22.95 314.316 23.3544 313.95 23.6814C313.603 24.0083 313.173 24.2492 312.661 24.4041C312.716 24.4385 312.789 24.4643 312.88 24.4815C312.972 24.4815 313.082 24.4815 313.21 24.4815C313.74 24.4815 314.197 24.3094 314.581 23.9653C314.983 23.6039 315.348 23.1049 315.678 22.4682L317.021 19.8611Z" fill="url(#paint15_linear_803_694)"/>
<path d="M340.966 6.36137C340.892 7.11853 340.838 7.84987 340.801 8.55541C340.783 9.26094 340.774 9.803 340.774 10.1816C340.774 10.5257 340.783 10.8527 340.801 11.1624C340.819 11.4722 340.838 11.7303 340.856 11.9368H340.225C339.987 10.6806 339.658 9.69114 339.238 8.9684C338.836 8.22845 338.342 7.71221 337.757 7.41967C337.172 7.10992 336.496 6.95505 335.728 6.95505H334.933C334.384 6.95505 333.973 6.99807 333.699 7.08411C333.443 7.17015 333.269 7.34224 333.178 7.60036C333.086 7.84127 333.04 8.23706 333.04 8.78772V21.9003C333.04 22.4854 333.077 22.9414 333.15 23.2684C333.223 23.5781 333.369 23.8018 333.589 23.9395C333.826 24.0599 334.165 24.1202 334.603 24.1202C335.518 24.1202 336.221 23.9309 336.715 23.5523C337.209 23.1565 337.556 22.5972 337.757 21.8745C337.958 21.1518 338.059 20.3 338.059 19.3191C338.059 18.3038 337.94 17.4176 337.702 16.6604C337.483 15.9033 337.09 15.3182 336.523 14.9052C335.956 14.475 335.152 14.2599 334.11 14.2599C333.854 14.2599 333.543 14.2599 333.178 14.2599C332.83 14.2599 332.483 14.2685 332.135 14.2857C331.806 14.2857 331.514 14.2857 331.258 14.2857V13.7695C331.879 13.7695 332.492 13.7695 333.095 13.7695C333.717 13.7523 334.238 13.7437 334.658 13.7437C336.139 13.7437 337.391 13.8985 338.415 14.2083C339.439 14.518 340.253 14.931 340.856 15.4473C341.477 15.9463 341.925 16.5228 342.2 17.1767C342.474 17.8306 342.611 18.5103 342.611 19.2158C342.611 19.9558 342.465 20.6527 342.172 21.3066C341.88 21.9605 341.413 22.537 340.774 23.036C340.152 23.5351 339.348 23.9223 338.36 24.1976C337.373 24.4729 336.185 24.6106 334.795 24.6106C334.338 24.6106 333.781 24.602 333.123 24.5848C332.465 24.5676 331.633 24.559 330.627 24.559C329.969 24.559 329.247 24.5676 328.461 24.5848C327.693 24.5848 327.081 24.602 326.623 24.6364V24.1202C327.19 24.0857 327.62 24.0169 327.912 23.9137C328.223 23.8104 328.424 23.6039 328.516 23.2942C328.625 22.9844 328.68 22.5198 328.68 21.9003V9.09746C328.68 8.46076 328.625 7.99614 328.516 7.70361C328.424 7.39386 328.232 7.18736 327.94 7.08411C327.647 6.96366 327.208 6.89482 326.623 6.87762V6.36137C327.373 6.37858 328.168 6.39579 329.009 6.413C329.85 6.413 330.682 6.4216 331.505 6.43881C332.327 6.43881 333.095 6.43881 333.808 6.43881C334.521 6.43881 335.106 6.43881 335.563 6.43881C336.349 6.43881 337.245 6.43881 338.251 6.43881C339.256 6.4216 340.161 6.39579 340.966 6.36137Z" fill="url(#paint16_linear_803_694)"/>
<path d="M362.89 6.36137V6.87762C362.268 6.89482 361.793 6.96366 361.464 7.08411C361.153 7.18736 360.943 7.39386 360.833 7.70361C360.723 7.99614 360.668 8.46076 360.668 9.09746V21.9003C360.668 22.5198 360.723 22.9844 360.833 23.2942C360.943 23.6039 361.153 23.8104 361.464 23.9137C361.793 24.0169 362.268 24.0857 362.89 24.1202V24.6364C362.396 24.602 361.747 24.5848 360.942 24.5848C360.156 24.5676 359.315 24.559 358.42 24.559C357.56 24.559 356.719 24.5676 355.897 24.5848C355.074 24.5848 354.398 24.602 353.867 24.6364V24.1202C354.544 24.0857 355.056 24.0169 355.403 23.9137C355.769 23.8104 356.006 23.6039 356.116 23.2942C356.244 22.9844 356.308 22.5198 356.308 21.9003V9.09746C356.308 8.46076 356.244 7.98754 356.116 7.67779C356.006 7.36805 355.805 7.16155 355.513 7.0583C355.239 6.93784 354.873 6.87762 354.416 6.87762H354.224C353.785 6.87762 353.429 6.93784 353.154 7.0583C352.899 7.16155 352.707 7.37665 352.579 7.70361C352.469 8.01335 352.387 8.47797 352.332 9.09746C352.24 10.1127 352.149 11.2055 352.058 12.3756C351.984 13.5458 351.884 14.7245 351.756 15.9119C351.628 17.0992 351.445 18.235 351.207 19.3191C350.988 20.4032 350.686 21.3755 350.302 22.2359C349.919 23.0791 349.425 23.7502 348.822 24.2492C348.218 24.7483 347.478 24.9978 346.6 24.9978C345.778 24.9978 345.065 24.7827 344.461 24.3525C343.876 23.9051 343.584 23.32 343.584 22.5972C343.584 21.9261 343.822 21.3927 344.297 20.9969C344.791 20.6011 345.385 20.4032 346.079 20.4032C346.683 20.4032 347.167 20.5495 347.533 20.842C347.917 21.1173 348.109 21.5045 348.109 22.0036C348.109 22.6058 347.898 23.1135 347.478 23.5265C347.076 23.9223 346.555 24.2062 345.915 24.3783C346.006 24.4299 346.107 24.4643 346.217 24.4815C346.344 24.4987 346.472 24.5073 346.6 24.5073C347.441 24.5073 348.145 24.2062 348.712 23.6039C349.279 23.0016 349.736 22.1842 350.083 21.1518C350.449 20.1021 350.732 18.9147 350.933 17.5897C351.134 16.2647 351.29 14.8794 351.399 13.4339C351.509 11.9712 351.61 10.5257 351.701 9.09746C351.756 8.49518 351.728 8.03916 351.619 7.72942C351.527 7.41967 351.308 7.20457 350.961 7.08411C350.632 6.96366 350.138 6.89482 349.48 6.87762V6.36137C349.864 6.37858 350.321 6.39579 350.851 6.413C351.381 6.4302 351.866 6.43881 352.304 6.43881C352.725 6.43881 353.127 6.4302 353.511 6.413C353.913 6.37858 354.315 6.36137 354.718 6.36137C355.412 6.36137 356.043 6.37858 356.61 6.413C357.176 6.4302 357.853 6.43881 358.639 6.43881C359.096 6.43881 359.59 6.43881 360.12 6.43881C360.668 6.4216 361.18 6.413 361.655 6.413C362.149 6.39579 362.56 6.37858 362.89 6.36137Z" fill="url(#paint17_linear_803_694)"/>
<path d="M373.659 6.36137V6.87762C373.074 6.89482 372.635 6.96366 372.343 7.08411C372.05 7.18736 371.849 7.39386 371.74 7.70361C371.648 7.99614 371.602 8.46076 371.602 9.09746V21.9003C371.602 22.5198 371.648 22.9844 371.74 23.2942C371.849 23.6039 372.05 23.8104 372.343 23.9137C372.635 24.0169 373.074 24.0857 373.659 24.1202V24.6364C373.166 24.602 372.544 24.5848 371.794 24.5848C371.045 24.5676 370.286 24.559 369.518 24.559C368.623 24.559 367.791 24.5676 367.023 24.5848C366.273 24.5848 365.661 24.602 365.186 24.6364V24.1202C365.752 24.0857 366.182 24.0169 366.474 23.9137C366.785 23.8104 366.986 23.6039 367.078 23.2942C367.187 22.9844 367.242 22.5198 367.242 21.9003V9.09746C367.242 8.46076 367.187 7.99614 367.078 7.70361C366.986 7.39386 366.785 7.18736 366.474 7.08411C366.182 6.96366 365.752 6.89482 365.186 6.87762V6.36137C365.661 6.37858 366.273 6.39579 367.023 6.413C367.791 6.4302 368.623 6.43881 369.518 6.43881C370.286 6.43881 371.045 6.4302 371.794 6.413C372.544 6.39579 373.166 6.37858 373.659 6.36137ZM379.966 7.78104C379.966 7.78104 379.966 7.87569 379.966 8.06498C379.966 8.23706 379.966 8.41774 379.966 8.60703C379.985 8.79632 379.994 8.89097 379.994 8.89097L370.835 23.4749L370.588 22.7521L379.966 7.78104ZM385.835 6.36137V6.87762C385.25 6.89482 384.811 6.96366 384.518 7.08411C384.226 7.18736 384.025 7.39386 383.915 7.70361C383.824 7.99614 383.778 8.46076 383.778 9.09746V21.9003C383.778 22.5198 383.824 22.9844 383.915 23.2942C384.025 23.6039 384.226 23.8104 384.518 23.9137C384.811 24.0169 385.25 24.0857 385.835 24.1202V24.6364C385.359 24.602 384.738 24.5848 383.97 24.5848C383.202 24.5676 382.38 24.559 381.502 24.559C380.734 24.559 379.966 24.5676 379.198 24.5848C378.449 24.5848 377.837 24.602 377.361 24.6364V24.1202C377.928 24.0857 378.358 24.0169 378.65 23.9137C378.943 23.8104 379.144 23.6039 379.253 23.2942C379.363 22.9844 379.418 22.5198 379.418 21.9003V9.09746C379.418 8.46076 379.363 7.99614 379.253 7.70361C379.144 7.39386 378.943 7.18736 378.65 7.08411C378.358 6.96366 377.928 6.89482 377.361 6.87762V6.36137C377.837 6.37858 378.449 6.39579 379.198 6.413C379.966 6.4302 380.734 6.43881 381.502 6.43881C382.38 6.43881 383.202 6.4302 383.97 6.413C384.738 6.39579 385.359 6.37858 385.835 6.36137Z" fill="url(#paint18_linear_803_694)"/>
<path d="M396.703 6.36137V6.87762C396.118 6.89482 395.67 6.96366 395.359 7.08411C395.067 7.18736 394.875 7.39386 394.783 7.70361C394.692 7.99614 394.646 8.46076 394.646 9.09746V21.9003C394.646 22.5198 394.692 22.9844 394.783 23.2942C394.893 23.6039 395.094 23.8104 395.386 23.9137C395.679 24.0169 396.118 24.0857 396.703 24.1202V24.6364C396.209 24.602 395.588 24.5848 394.838 24.5848C394.088 24.5676 393.33 24.559 392.562 24.559C391.684 24.559 390.853 24.5676 390.066 24.5848C389.299 24.5848 388.686 24.602 388.229 24.6364V24.1202C388.814 24.0857 389.253 24.0169 389.545 23.9137C389.838 23.8104 390.03 23.6039 390.121 23.2942C390.231 22.9844 390.286 22.5198 390.286 21.9003V9.09746C390.286 8.46076 390.231 7.99614 390.121 7.70361C390.03 7.39386 389.829 7.18736 389.518 7.08411C389.225 6.96366 388.796 6.89482 388.229 6.87762V6.36137C388.686 6.37858 389.299 6.39579 390.066 6.413C390.853 6.4302 391.684 6.43881 392.562 6.43881C393.33 6.43881 394.088 6.4302 394.838 6.413C395.588 6.39579 396.209 6.37858 396.703 6.36137ZM395.441 14.8794C396.904 14.8794 398.174 14.9826 399.253 15.1891C400.35 15.3784 401.227 15.7312 401.886 16.2474C402.562 16.7465 403.019 17.4864 403.257 18.4673L404.052 21.9261C404.198 22.6317 404.363 23.1221 404.546 23.3974C404.728 23.6555 405.003 23.7846 405.368 23.7846C405.588 23.7674 405.77 23.7158 405.917 23.6297C406.081 23.5265 406.255 23.3802 406.438 23.1909L406.822 23.5007C406.328 24.0169 405.798 24.3955 405.231 24.6364C404.664 24.8773 403.979 24.9978 403.174 24.9978C402.187 24.9978 401.374 24.8085 400.734 24.4299C400.094 24.0341 399.674 23.2942 399.472 22.2101L398.732 18.2608C398.604 17.5725 398.412 17.0132 398.156 16.583C397.918 16.1528 397.553 15.8344 397.059 15.6279C396.566 15.4215 395.88 15.3182 395.003 15.3182H393.933V14.8794H395.441ZM394.536 15.3182V14.8794C395.322 14.8622 396.035 14.6643 396.675 14.2857C397.315 13.8899 398.001 13.2876 398.732 12.4789L400.35 10.6462C401.063 9.87183 401.474 9.20932 401.584 8.65866C401.694 8.09079 401.575 7.65198 401.227 7.34224C400.88 7.03249 400.341 6.86901 399.61 6.8518V6.36137C400.048 6.37858 400.478 6.39579 400.898 6.413C401.319 6.413 401.748 6.4216 402.187 6.43881C402.626 6.43881 403.11 6.43881 403.641 6.43881C404.189 6.43881 404.674 6.4302 405.094 6.413C405.533 6.39579 405.917 6.37858 406.246 6.36137V6.8518C405.643 6.97226 405.012 7.21317 404.354 7.57455C403.695 7.93592 402.992 8.52099 402.242 9.32977L396.812 15.3182H394.536Z" fill="url(#paint19_linear_803_694)"/>
<path d="M417.7 6.30975L424.364 22.4682C424.62 23.0877 424.903 23.5179 425.214 23.7588C425.543 23.9825 425.836 24.103 426.092 24.1202V24.6364C425.543 24.602 424.894 24.5848 424.145 24.5848C423.413 24.5676 422.673 24.559 421.923 24.559C421.082 24.559 420.287 24.5676 419.538 24.5848C418.788 24.5848 418.194 24.602 417.755 24.6364V24.1202C418.688 24.0857 419.273 23.9395 419.51 23.6814C419.766 23.406 419.711 22.8296 419.346 21.9519L414.684 9.94927L415.177 9.27815L411.009 19.4998C410.607 20.4462 410.36 21.2206 410.269 21.8229C410.196 22.4252 410.241 22.8898 410.406 23.2167C410.589 23.5437 410.872 23.776 411.256 23.9137C411.658 24.0341 412.134 24.103 412.682 24.1202V24.6364C412.079 24.602 411.503 24.5848 410.954 24.5848C410.406 24.5676 409.848 24.559 409.282 24.559C408.879 24.559 408.495 24.5676 408.13 24.5848C407.782 24.5848 407.472 24.602 407.197 24.6364V24.1202C407.581 24.0513 407.974 23.819 408.377 23.4232C408.779 23.0274 409.172 22.3563 409.556 21.4099L415.808 6.30975C416.101 6.32696 416.411 6.33556 416.741 6.33556C417.088 6.33556 417.408 6.32696 417.7 6.30975ZM419.62 17.2025V17.7187H411.448L411.722 17.2025H419.62Z" fill="url(#paint20_linear_803_694)"/>
<path d="M439.008 24.6364V24.1202C439.593 24.0857 440.031 24.0169 440.324 23.9137C440.616 23.8104 440.808 23.6039 440.9 23.2942C441.009 22.9844 441.064 22.5198 441.064 21.9003V9.09746C441.064 8.46076 441.009 7.99614 440.9 7.70361C440.808 7.39386 440.607 7.18736 440.296 7.08411C440.004 6.96366 439.574 6.89482 439.008 6.87762V6.36137C439.501 6.37858 440.141 6.39579 440.927 6.413C441.731 6.4302 442.527 6.43881 443.313 6.43881C444.154 6.43881 444.94 6.4302 445.671 6.413C446.421 6.39579 447.024 6.37858 447.481 6.36137V6.87762C446.896 6.89482 446.448 6.96366 446.137 7.08411C445.845 7.18736 445.653 7.39386 445.562 7.70361C445.47 7.99614 445.424 8.46076 445.424 9.09746V21.9003C445.424 22.5198 445.47 22.9844 445.562 23.2942C445.671 23.6039 445.872 23.8104 446.165 23.9137C446.457 24.0169 446.896 24.0857 447.481 24.1202V24.6364C447.024 24.602 446.421 24.5848 445.671 24.5848C444.94 24.5676 444.154 24.559 443.313 24.559C442.527 24.559 441.731 24.5676 440.927 24.5848C440.141 24.5848 439.501 24.602 439.008 24.6364ZM427.38 24.6364V24.1202C427.965 24.0857 428.404 24.0169 428.697 23.9137C428.989 23.8104 429.181 23.6039 429.272 23.2942C429.382 22.9844 429.437 22.5198 429.437 21.9003V9.09746C429.437 8.46076 429.382 7.99614 429.272 7.70361C429.181 7.39386 428.98 7.18736 428.669 7.08411C428.377 6.96366 427.947 6.89482 427.38 6.87762V6.36137C427.856 6.37858 428.468 6.39579 429.218 6.413C429.985 6.4302 430.817 6.43881 431.713 6.43881C432.481 6.43881 433.24 6.4302 433.989 6.413C434.739 6.39579 435.36 6.37858 435.854 6.36137V6.87762C435.269 6.89482 434.821 6.96366 434.51 7.08411C434.218 7.18736 434.026 7.39386 433.934 7.70361C433.843 7.99614 433.797 8.46076 433.797 9.09746V21.9003C433.797 22.5198 433.843 22.9844 433.934 23.2942C434.044 23.6039 434.245 23.8104 434.538 23.9137C434.83 24.0169 435.269 24.0857 435.854 24.1202V24.6364C435.36 24.602 434.739 24.5848 433.989 24.5848C433.24 24.5676 432.481 24.559 431.713 24.559C430.817 24.559 429.985 24.5676 429.218 24.5848C428.468 24.5848 427.856 24.602 427.38 24.6364ZM432.015 15.7054V15.1891H442.847V15.7054H432.015Z" fill="url(#paint21_linear_803_694)"/>
<path d="M459.602 6C460.808 6 461.796 6.17208 462.563 6.51625C463.35 6.8432 464.044 7.23038 464.647 7.67779C465.013 7.93592 465.287 7.97033 465.47 7.78104C465.671 7.57454 465.808 7.10132 465.882 6.36137H466.512C466.476 7.03249 466.448 7.84988 466.43 8.81353C466.412 9.75998 466.403 11.0248 466.403 12.6079H465.772C465.68 11.8163 465.562 11.1452 465.415 10.5946C465.269 10.0267 465.068 9.52767 464.812 9.09746C464.556 8.66726 464.19 8.28008 463.715 7.93592C463.258 7.50571 462.728 7.18736 462.125 6.98086C461.521 6.77437 460.891 6.67112 460.232 6.67112C459.245 6.67112 458.404 6.92064 457.71 7.41967C457.015 7.9015 456.448 8.56401 456.009 9.40721C455.589 10.2504 455.278 11.2055 455.077 12.2724C454.876 13.3221 454.775 14.4148 454.775 15.5505C454.775 16.7035 454.876 17.8134 455.077 18.8803C455.296 19.93 455.625 20.8678 456.064 21.6938C456.521 22.5198 457.106 23.1737 457.819 23.6555C458.532 24.1374 459.373 24.3783 460.342 24.3783C460.945 24.3783 461.549 24.275 462.152 24.0685C462.774 23.8448 463.304 23.5265 463.743 23.1135C464.456 22.5972 464.94 21.9605 465.196 21.2034C465.452 20.429 465.644 19.4051 465.772 18.1317H466.403C466.403 19.7665 466.412 21.0915 466.43 22.1068C466.448 23.1049 466.476 23.9481 466.512 24.6364H465.882C465.808 23.8965 465.68 23.4318 465.498 23.2425C465.333 23.0533 465.05 23.0791 464.647 23.32C463.971 23.7674 463.249 24.1632 462.481 24.5073C461.732 24.8343 460.763 24.9978 459.574 24.9978C457.636 24.9978 455.936 24.6278 454.474 23.8879C453.029 23.1479 451.905 22.081 451.101 20.6871C450.296 19.2933 449.894 17.6155 449.894 15.6538C449.894 13.7265 450.305 12.0401 451.128 10.5946C451.969 9.14909 453.112 8.02196 454.556 7.21317C456.019 6.40439 457.7 6 459.602 6Z" fill="url(#paint22_linear_803_694)"/>
<path d="M478.004 6.36137V6.87762C477.419 6.89482 476.972 6.96366 476.661 7.08411C476.368 7.18736 476.176 7.39386 476.085 7.70361C475.993 7.99614 475.948 8.46076 475.948 9.09746V21.9003C475.948 22.5198 475.993 22.9844 476.085 23.2942C476.195 23.6039 476.396 23.8104 476.688 23.9137C476.981 24.0169 477.419 24.0857 478.004 24.1202V24.6364C477.511 24.602 476.889 24.5848 476.14 24.5848C475.39 24.5676 474.631 24.559 473.864 24.559C472.986 24.559 472.154 24.5676 471.368 24.5848C470.6 24.5848 469.988 24.602 469.531 24.6364V24.1202C470.116 24.0857 470.555 24.0169 470.847 23.9137C471.14 23.8104 471.332 23.6039 471.423 23.2942C471.533 22.9844 471.588 22.5198 471.588 21.9003V9.09746C471.588 8.46076 471.533 7.99614 471.423 7.70361C471.332 7.39386 471.131 7.18736 470.82 7.08411C470.527 6.96366 470.098 6.89482 469.531 6.87762V6.36137C469.988 6.37858 470.6 6.39579 471.368 6.413C472.154 6.4302 472.986 6.43881 473.864 6.43881C474.631 6.43881 475.39 6.4302 476.14 6.413C476.889 6.39579 477.511 6.37858 478.004 6.36137ZM476.743 14.8794C478.206 14.8794 479.476 14.9826 480.555 15.1891C481.652 15.3784 482.529 15.7312 483.187 16.2474C483.864 16.7465 484.321 17.4864 484.559 18.4673L485.354 21.9261C485.5 22.6317 485.665 23.1221 485.847 23.3974C486.03 23.6555 486.304 23.7846 486.67 23.7846C486.889 23.7674 487.072 23.7158 487.218 23.6297C487.383 23.5265 487.557 23.3802 487.74 23.1909L488.123 23.5007C487.63 24.0169 487.1 24.3955 486.533 24.6364C485.966 24.8773 485.281 24.9978 484.476 24.9978C483.489 24.9978 482.675 24.8085 482.036 24.4299C481.396 24.0341 480.975 23.2942 480.774 22.2101L480.034 18.2608C479.906 17.5725 479.714 17.0132 479.458 16.583C479.22 16.1528 478.855 15.8344 478.361 15.6279C477.867 15.4215 477.182 15.3182 476.304 15.3182H475.235V14.8794H476.743ZM475.838 15.3182V14.8794C476.624 14.8622 477.337 14.6643 477.977 14.2857C478.617 13.8899 479.302 13.2876 480.034 12.4789L481.652 10.6462C482.365 9.87183 482.776 9.20932 482.886 8.65866C482.995 8.09079 482.877 7.65198 482.529 7.34224C482.182 7.03249 481.643 6.86901 480.911 6.8518V6.36137C481.35 6.37858 481.78 6.39579 482.2 6.413C482.621 6.413 483.05 6.4216 483.489 6.43881C483.928 6.43881 484.412 6.43881 484.942 6.43881C485.491 6.43881 485.975 6.4302 486.396 6.413C486.835 6.39579 487.219 6.37858 487.548 6.36137V6.8518C486.944 6.97226 486.314 7.21317 485.655 7.57455C484.997 7.93592 484.293 8.52099 483.544 9.32977L478.114 15.3182H475.838Z" fill="url(#paint23_linear_803_694)"/>
<path d="M499.002 6.30975L505.666 22.4682C505.922 23.0877 506.205 23.5179 506.516 23.7588C506.845 23.9825 507.137 24.103 507.393 24.1202V24.6364C506.845 24.602 506.196 24.5848 505.446 24.5848C504.715 24.5676 503.975 24.559 503.225 24.559C502.384 24.559 501.589 24.5676 500.839 24.5848C500.09 24.5848 499.496 24.602 499.057 24.6364V24.1202C499.989 24.0857 500.574 23.9395 500.812 23.6814C501.068 23.406 501.013 22.8296 500.647 21.9519L495.986 9.94927L496.479 9.27815L492.311 19.4998C491.909 20.4462 491.662 21.2206 491.571 21.8229C491.497 22.4252 491.543 22.8898 491.708 23.2167C491.89 23.5437 492.174 23.776 492.558 23.9137C492.96 24.0341 493.435 24.103 493.984 24.1202V24.6364C493.38 24.602 492.805 24.5848 492.256 24.5848C491.708 24.5676 491.15 24.559 490.583 24.559C490.181 24.559 489.797 24.5676 489.432 24.5848C489.084 24.5848 488.773 24.602 488.499 24.6364V24.1202C488.883 24.0513 489.276 23.819 489.678 23.4232C490.081 23.0274 490.474 22.3563 490.858 21.4099L497.11 6.30975C497.402 6.32696 497.713 6.33556 498.042 6.33556C498.39 6.33556 498.71 6.32696 499.002 6.30975ZM500.922 17.2025V17.7187H492.75L493.024 17.2025H500.922Z" fill="url(#paint24_linear_803_694)"/>
<path d="M525.958 6.36137V6.87762C525.373 6.89482 524.935 6.96366 524.642 7.08411C524.35 7.18736 524.148 7.39386 524.039 7.70361C523.947 7.99614 523.902 8.46076 523.902 9.09746V21.9003C523.902 22.5198 523.947 22.9844 524.039 23.2942C524.148 23.6039 524.35 23.8104 524.642 23.9137C524.935 24.0169 525.373 24.0857 525.958 24.1202V24.6364C525.501 24.602 524.88 24.5848 524.094 24.5848C523.326 24.5676 522.503 24.559 521.626 24.559C520.876 24.559 520.117 24.5676 519.349 24.5848C518.582 24.5848 517.96 24.602 517.485 24.6364V24.1202C518.051 24.0857 518.481 24.0169 518.774 23.9137C519.084 23.8104 519.285 23.6039 519.377 23.2942C519.487 22.9844 519.541 22.5198 519.541 21.9003V9.09746C519.541 8.20264 519.432 7.60896 519.212 7.31642C519.011 7.02389 518.554 6.87762 517.841 6.87762C516.598 6.87762 515.721 7.24759 515.209 7.98754C514.697 8.72749 514.441 9.75998 514.441 11.085C514.441 11.8938 514.541 12.6337 514.742 13.3049C514.944 13.9588 515.327 14.4836 515.894 14.8794C516.461 15.258 517.284 15.4473 518.362 15.4473H520.721C520.721 15.4473 520.721 15.5333 520.721 15.7054C520.721 15.8775 520.721 15.9635 520.721 15.9635H518.088C516.461 15.9635 515.117 15.8258 514.057 15.5505C512.997 15.2752 512.156 14.9052 511.534 14.4406C510.931 13.976 510.501 13.4511 510.245 12.866C510.007 12.281 509.889 11.6701 509.889 11.0334C509.889 10.0525 510.163 9.21792 510.711 8.5296C511.278 7.82406 512.119 7.29061 513.234 6.92924C514.368 6.56787 515.785 6.38718 517.485 6.38718C517.832 6.38718 518.408 6.39579 519.212 6.413C520.035 6.4302 520.894 6.43881 521.79 6.43881C522.558 6.43881 523.326 6.4302 524.094 6.413C524.88 6.39579 525.501 6.37858 525.958 6.36137ZM520.556 15.5247L520.501 15.9635H517.54C516.973 15.9635 516.525 16.127 516.196 16.4539C515.885 16.7637 515.638 17.1939 515.455 17.7445C515.273 18.278 515.117 18.9061 514.989 19.6288L514.496 22.2101C514.295 23.277 513.874 24.0083 513.234 24.4041C512.594 24.7999 511.79 24.9978 510.821 24.9978C510.035 24.9978 509.358 24.8773 508.792 24.6364C508.225 24.4127 507.704 24.0341 507.229 23.5007L507.613 23.1909C507.795 23.3802 507.96 23.5265 508.106 23.6297C508.271 23.7158 508.472 23.7674 508.709 23.7846C509.057 23.7846 509.322 23.6469 509.505 23.3716C509.688 23.0963 509.852 22.6144 509.998 21.9261L510.574 19.2675C510.812 18.1661 511.351 17.3746 512.192 16.8927C513.033 16.4109 514.24 16.0754 515.812 15.8861C516.159 15.8344 516.507 15.7914 516.854 15.757C517.201 15.7226 517.658 15.6882 518.225 15.6538C518.81 15.6021 519.587 15.5591 520.556 15.5247Z" fill="url(#paint25_linear_803_694)"/>
<path d="M18.4736 41.2078V41.7241C17.8886 41.7413 17.4407 41.8101 17.1299 41.9306C16.8374 42.0338 16.6454 42.2403 16.554 42.5501C16.4626 42.8426 16.4169 43.3072 16.4169 43.9439V56.7468C16.4169 57.3663 16.4626 57.8309 16.554 58.1406C16.6637 58.4504 16.8648 58.6569 17.1573 58.7601C17.4498 58.8634 17.8886 58.9322 18.4736 58.9666V59.4829C17.98 59.4484 17.3584 59.4312 16.6089 59.4312C15.8593 59.414 15.1006 59.4054 14.3328 59.4054C13.4553 59.4054 12.6234 59.414 11.8373 59.4312C11.0695 59.4312 10.457 59.4484 10 59.4829V58.9666C10.585 58.9322 11.0238 58.8634 11.3163 58.7601C11.6088 58.6569 11.8008 58.4504 11.8922 58.1406C12.0019 57.8309 12.0567 57.3663 12.0567 56.7468V43.9439C12.0567 43.3072 12.0019 42.8426 11.8922 42.5501C11.8008 42.2403 11.5997 42.0338 11.2889 41.9306C10.9964 41.8101 10.5667 41.7413 10 41.7241V41.2078C10.457 41.225 11.0695 41.2423 11.8373 41.2595C12.6234 41.2767 13.4553 41.2853 14.3328 41.2853C15.1006 41.2853 15.8593 41.2767 16.6089 41.2595C17.3584 41.2423 17.98 41.225 18.4736 41.2078ZM17.2122 49.7259C18.6747 49.7259 19.9453 49.8291 21.0239 50.0356C22.1208 50.2249 22.9983 50.5777 23.6565 51.0939C24.3329 51.5929 24.79 52.3329 25.0276 53.3138L25.8229 56.7726C25.9691 57.4781 26.1337 57.9686 26.3165 58.2439C26.4993 58.502 26.7735 58.6311 27.1392 58.6311C27.3585 58.6139 27.5414 58.5622 27.6876 58.4762C27.8521 58.3729 28.0258 58.2267 28.2086 58.0374L28.5926 58.3471C28.099 58.8634 27.5688 59.242 27.002 59.4829C26.4353 59.7238 25.7497 59.8442 24.9453 59.8442C23.9581 59.8442 23.1446 59.6549 22.5047 59.2764C21.8649 58.8806 21.4444 58.1406 21.2433 57.0565L20.5029 53.1073C20.3749 52.4189 20.1829 51.8597 19.927 51.4295C19.6893 50.9993 19.3237 50.6809 18.8301 50.4744C18.3365 50.2679 17.6509 50.1647 16.7734 50.1647H15.7039V49.7259H17.2122ZM16.3072 50.1647V49.7259C17.0933 49.7086 17.8063 49.5108 18.4462 49.1322C19.086 48.7364 19.7716 48.1341 20.5029 47.3253L22.1208 45.4927C22.8338 44.7183 23.2451 44.0558 23.3548 43.5051C23.4645 42.9372 23.3457 42.4984 22.9983 42.1887C22.651 41.8789 22.1117 41.7155 21.3804 41.6983V41.2078C21.8192 41.225 22.2488 41.2423 22.6693 41.2595C23.0897 41.2595 23.5194 41.2681 23.9581 41.2853C24.3969 41.2853 24.8814 41.2853 25.4115 41.2853C25.96 41.2853 26.4445 41.2767 26.8649 41.2595C27.3037 41.2423 27.6876 41.225 28.0167 41.2078V41.6983C27.4134 41.8187 26.7827 42.0596 26.1245 42.421C25.4664 42.7824 24.7625 43.3675 24.013 44.1762L18.5833 50.1647H16.3072Z" fill="url(#paint26_linear_803_694)"/>
<path d="M39.7844 40.8465C41.7223 40.8465 43.4134 41.2164 44.8576 41.9564C46.3202 42.6963 47.4536 43.7632 48.258 45.1571C49.0624 46.5338 49.4646 48.2115 49.4646 50.1905C49.4646 52.1178 49.0533 53.8042 48.2306 55.2497C47.4079 56.6952 46.2562 57.8223 44.7754 58.6311C43.3128 59.4398 41.64 59.8442 39.757 59.8442C37.8191 59.8442 36.1189 59.4743 34.6564 58.7343C33.2121 57.9944 32.0878 56.9275 31.2834 55.5336C30.479 54.1397 30.0768 52.462 30.0768 50.5002C30.0768 48.5729 30.4881 46.8865 31.3108 45.441C32.1518 43.9955 33.2944 42.8684 34.7387 42.0596C36.2012 41.2509 37.8831 40.8465 39.7844 40.8465ZM39.6747 41.3111C38.651 41.3111 37.7552 41.6983 36.9873 42.4726C36.2378 43.247 35.6528 44.3139 35.2323 45.6733C34.8301 47.0328 34.629 48.6073 34.629 50.397C34.629 52.221 34.8575 53.8128 35.3145 55.1722C35.7899 56.5145 36.4206 57.5556 37.2067 58.2955C38.0111 59.0182 38.8978 59.3796 39.8667 59.3796C40.8905 59.3796 41.7771 58.9924 42.5267 58.2181C43.2945 57.4437 43.8795 56.3768 44.2817 55.0174C44.7022 53.6407 44.9125 52.0662 44.9125 50.2937C44.9125 48.4525 44.6748 46.8607 44.1995 45.5185C43.7424 44.1762 43.1117 43.1437 42.3073 42.421C41.5212 41.6811 40.6437 41.3111 39.6747 41.3111Z" fill="url(#paint27_linear_803_694)"/>
<path d="M69.7917 41.2078V41.7241C69.1701 41.7413 68.6948 41.8101 68.3657 41.9306C68.0549 42.0338 67.8447 42.2403 67.735 42.5501C67.6253 42.8426 67.5704 43.3072 67.5704 43.9439V56.7468C67.5704 57.3663 67.6253 57.8309 67.735 58.1406C67.8447 58.4504 68.0549 58.6569 68.3657 58.7601C68.6948 58.8634 69.1701 58.9322 69.7917 58.9666V59.4829C69.2981 59.4484 68.6491 59.4312 67.8447 59.4312C67.0585 59.414 66.2176 59.4054 65.3218 59.4054C64.4625 59.4054 63.6216 59.414 62.7989 59.4312C61.9762 59.4312 61.2998 59.4484 60.7696 59.4829V58.9666C61.446 58.9322 61.9579 58.8634 62.3053 58.7601C62.6709 58.6569 62.9086 58.4504 63.0183 58.1406C63.1462 57.8309 63.2102 57.3663 63.2102 56.7468V43.9439C63.2102 43.3072 63.1462 42.834 63.0183 42.5243C62.9086 42.2145 62.7075 42.008 62.415 41.9048C62.1408 41.7843 61.7751 41.7241 61.3181 41.7241H61.1261C60.6873 41.7241 60.3309 41.7843 60.0566 41.9048C59.8007 42.008 59.6087 42.2231 59.4808 42.5501C59.3711 42.8598 59.2888 43.3244 59.2339 43.9439C59.1425 44.9592 59.0511 46.0519 58.9597 47.2221C58.8866 48.3922 58.786 49.571 58.6581 50.7583C58.5301 51.9457 58.3473 53.0814 58.1096 54.1656C57.8902 55.2497 57.5886 56.2219 57.2047 57.0823C56.8208 57.9255 56.3271 58.5966 55.7239 59.0957C55.1206 59.5947 54.3801 59.8442 53.5026 59.8442C52.6799 59.8442 51.9669 59.6291 51.3636 59.1989C50.7786 58.7515 50.4861 58.1664 50.4861 57.4437C50.4861 56.7726 50.7238 56.2391 51.1991 55.8433C51.6927 55.4476 52.2869 55.2497 52.9816 55.2497C53.5849 55.2497 54.0693 55.3959 54.435 55.6885C54.8189 55.9638 55.0109 56.351 55.0109 56.85C55.0109 57.4523 54.8006 57.9599 54.3801 58.3729C53.9779 58.7687 53.4569 59.0527 52.817 59.2247C52.9085 59.2764 53.009 59.3108 53.1187 59.328C53.2467 59.3452 53.3746 59.3538 53.5026 59.3538C54.3436 59.3538 55.0474 59.0527 55.6142 58.4504C56.1809 57.8481 56.6379 57.0307 56.9853 55.9982C57.3509 54.9485 57.6343 53.7612 57.8354 52.4361C58.0365 51.1111 58.1919 49.7259 58.3016 48.2804C58.4113 46.8177 58.5118 45.3722 58.6032 43.9439C58.6581 43.3416 58.6307 42.8856 58.521 42.5759C58.4296 42.2661 58.2102 42.051 57.8628 41.9306C57.5337 41.8101 57.0401 41.7413 56.382 41.7241V41.2078C56.7659 41.225 57.223 41.2423 57.7531 41.2595C58.2833 41.2767 58.7678 41.2853 59.2065 41.2853C59.627 41.2853 60.0292 41.2767 60.4131 41.2595C60.8153 41.225 61.2175 41.2078 61.6197 41.2078C62.3144 41.2078 62.9451 41.225 63.5119 41.2595C64.0786 41.2767 64.755 41.2853 65.5412 41.2853C65.9982 41.2853 66.4918 41.2853 67.022 41.2853C67.5704 41.2681 68.0823 41.2595 68.5577 41.2595C69.0513 41.2423 69.4626 41.225 69.7917 41.2078Z" fill="url(#paint28_linear_803_694)"/>
<path d="M90.0769 41.2078V41.7241C89.4554 41.7413 88.98 41.8101 88.651 41.9306C88.3402 42.0338 88.1299 42.2403 88.0202 42.5501C87.9106 42.8426 87.8557 43.3072 87.8557 43.9439V56.7468C87.8557 57.3663 87.9106 57.8309 88.0202 58.1406C88.1299 58.4504 88.3402 58.6569 88.651 58.7601C88.98 58.8634 89.4554 58.9322 90.0769 58.9666V59.4829C89.5833 59.4484 88.9343 59.4312 88.1299 59.4312C87.3438 59.414 86.5029 59.4054 85.607 59.4054C84.7478 59.4054 83.9068 59.414 83.0842 59.4312C82.2615 59.4312 81.5851 59.4484 81.0549 59.4829V58.9666C81.7313 58.9322 82.2432 58.8634 82.5906 58.7601C82.9562 58.6569 83.1939 58.4504 83.3035 58.1406C83.4315 57.8309 83.4955 57.3663 83.4955 56.7468V43.9439C83.4955 43.3072 83.4315 42.834 83.3035 42.5243C83.1939 42.2145 82.9928 42.008 82.7002 41.9048C82.426 41.7843 82.0604 41.7241 81.6033 41.7241H81.4114C80.9726 41.7241 80.6161 41.7843 80.3419 41.9048C80.086 42.008 79.894 42.2231 79.766 42.5501C79.6563 42.8598 79.5741 43.3244 79.5192 43.9439C79.4278 44.9592 79.3364 46.0519 79.245 47.2221C79.1719 48.3922 79.0713 49.571 78.9433 50.7583C78.8154 51.9457 78.6325 53.0814 78.3949 54.1656C78.1755 55.2497 77.8739 56.2219 77.4899 57.0823C77.106 57.9255 76.6124 58.5966 76.0091 59.0957C75.4058 59.5947 74.6654 59.8442 73.7879 59.8442C72.9652 59.8442 72.2522 59.6291 71.6489 59.1989C71.0639 58.7515 70.7714 58.1664 70.7714 57.4437C70.7714 56.7726 71.0091 56.2391 71.4844 55.8433C71.978 55.4476 72.5721 55.2497 73.2668 55.2497C73.8701 55.2497 74.3546 55.3959 74.7202 55.6885C75.1042 55.9638 75.2961 56.351 75.2961 56.85C75.2961 57.4523 75.0859 57.9599 74.6654 58.3729C74.2632 58.7687 73.7422 59.0527 73.1023 59.2247C73.1937 59.2764 73.2943 59.3108 73.404 59.328C73.5319 59.3452 73.6599 59.3538 73.7879 59.3538C74.6288 59.3538 75.3327 59.0527 75.8994 58.4504C76.4662 57.8481 76.9232 57.0307 77.2706 55.9982C77.6362 54.9485 77.9196 53.7612 78.1207 52.4361C78.3218 51.1111 78.4772 49.7259 78.5868 48.2804C78.6965 46.8177 78.7971 45.3722 78.8885 43.9439C78.9433 43.3416 78.9159 42.8856 78.8062 42.5759C78.7148 42.2661 78.4954 42.051 78.1481 41.9306C77.819 41.8101 77.3254 41.7413 76.6673 41.7241V41.2078C77.0512 41.225 77.5082 41.2423 78.0384 41.2595C78.5686 41.2767 79.053 41.2853 79.4918 41.2853C79.9123 41.2853 80.3145 41.2767 80.6984 41.2595C81.1006 41.225 81.5028 41.2078 81.905 41.2078C82.5997 41.2078 83.2304 41.225 83.7971 41.2595C84.3639 41.2767 85.0403 41.2853 85.8264 41.2853C86.2835 41.2853 86.7771 41.2853 87.3073 41.2853C87.8557 41.2681 88.3676 41.2595 88.8429 41.2595C89.3365 41.2423 89.7479 41.225 90.0769 41.2078Z" fill="url(#paint29_linear_803_694)"/>
<path d="M107.044 41.2078C106.971 41.965 106.916 42.6963 106.88 43.4019C106.861 44.1074 106.852 44.6495 106.852 45.028C106.852 45.3722 106.861 45.6992 106.88 46.0089C106.898 46.3186 106.916 46.5768 106.934 46.7833H106.304C106.121 45.5271 105.837 44.5376 105.454 43.8149C105.07 43.0749 104.567 42.5587 103.945 42.2661C103.342 41.9564 102.629 41.8015 101.806 41.8015H100.682C100.152 41.8015 99.7496 41.8445 99.4754 41.9306C99.2012 42.0166 99.0184 42.1887 98.9269 42.4468C98.8355 42.7049 98.7898 43.1007 98.7898 43.6342V57.0565C98.7898 57.59 98.8355 57.9858 98.9269 58.2439C99.0184 58.502 99.2012 58.6741 99.4754 58.7601C99.7496 58.8462 100.152 58.8892 100.682 58.8892H102.026C102.848 58.8892 103.571 58.7257 104.192 58.3988C104.832 58.0546 105.371 57.4781 105.81 56.6693C106.267 55.8606 106.614 54.7678 106.852 53.3912H107.483C107.428 53.9418 107.401 54.6646 107.401 55.5594C107.401 55.9552 107.41 56.5145 107.428 57.2372C107.446 57.9599 107.501 58.7085 107.593 59.4829C106.66 59.4484 105.609 59.4312 104.439 59.4312C103.269 59.414 102.227 59.4054 101.313 59.4054C100.856 59.4054 100.271 59.4054 99.5577 59.4054C98.8447 59.4054 98.0768 59.414 97.2542 59.4312C96.4315 59.4312 95.5997 59.4398 94.7587 59.4571C93.9178 59.4571 93.1225 59.4657 92.3729 59.4829V58.9666C92.958 58.9322 93.3967 58.8634 93.6892 58.7601C93.9817 58.6569 94.1737 58.4504 94.2651 58.1406C94.3748 57.8309 94.4296 57.3663 94.4296 56.7468V43.9439C94.4296 43.3072 94.3748 42.8426 94.2651 42.5501C94.1737 42.2403 93.9726 42.0338 93.6618 41.9306C93.3693 41.8101 92.9397 41.7413 92.3729 41.7241V41.2078C93.1225 41.225 93.9178 41.2423 94.7587 41.2595C95.5997 41.2595 96.4315 41.2681 97.2542 41.2853C98.0768 41.2853 98.8447 41.2853 99.5577 41.2853C100.271 41.2853 100.856 41.2853 101.313 41.2853C102.154 41.2853 103.104 41.2853 104.165 41.2853C105.243 41.2681 106.203 41.2422 107.044 41.2078ZM102.766 50.0356C102.766 50.0356 102.766 50.1216 102.766 50.2937C102.766 50.4658 102.766 50.5518 102.766 50.5518H97.9672C97.9672 50.5518 97.9672 50.4658 97.9672 50.2937C97.9672 50.1216 97.9672 50.0356 97.9672 50.0356H102.766ZM103.561 46.6284C103.488 47.6093 103.452 48.3578 103.452 48.8741C103.47 49.3903 103.479 49.8635 103.479 50.2937C103.479 50.7239 103.488 51.1972 103.507 51.7134C103.525 52.2296 103.571 52.9782 103.644 53.9591H103.013C102.922 53.3568 102.748 52.7975 102.492 52.2813C102.254 51.765 101.907 51.352 101.45 51.0423C100.993 50.7153 100.399 50.5518 99.6674 50.5518V50.0356C100.216 50.0356 100.682 49.9324 101.066 49.7259C101.45 49.5021 101.761 49.2182 101.998 48.8741C102.254 48.5127 102.455 48.1341 102.602 47.7383C102.748 47.3425 102.858 46.9726 102.931 46.6284H103.561Z" fill="url(#paint30_linear_803_694)"/>
<path d="M124.534 41.2078C124.461 41.9822 124.406 42.7307 124.369 43.4535C124.351 44.1762 124.342 44.7355 124.342 45.1313C124.342 45.5099 124.351 45.8712 124.369 46.2154C124.388 46.5596 124.406 46.8521 124.424 47.093H123.794C123.556 45.7508 123.227 44.7011 122.806 43.9439C122.386 43.1696 121.865 42.6189 121.243 42.2919C120.64 41.965 119.918 41.8015 119.077 41.8015H118.611C118.08 41.8015 117.678 41.8445 117.404 41.9306C117.13 42.0166 116.947 42.1887 116.856 42.4468C116.764 42.7049 116.718 43.1007 116.718 43.6342V56.7468C116.718 57.3663 116.773 57.8309 116.883 58.1406C117.011 58.4504 117.249 58.6569 117.596 58.7601C117.962 58.8634 118.483 58.9322 119.159 58.9666V59.4829C118.629 59.4484 117.953 59.4312 117.13 59.4312C116.307 59.414 115.475 59.4054 114.634 59.4054C113.739 59.4054 112.907 59.414 112.139 59.4312C111.389 59.4312 110.777 59.4484 110.302 59.4829V58.9666C110.868 58.9322 111.298 58.8634 111.59 58.7601C111.901 58.6569 112.102 58.4504 112.194 58.1406C112.303 57.8309 112.358 57.3663 112.358 56.7468V43.9439C112.358 43.3072 112.303 42.8426 112.194 42.5501C112.102 42.2403 111.91 42.0338 111.618 41.9306C111.325 41.8101 110.887 41.7413 110.302 41.7241V41.2078C111.051 41.225 111.846 41.2423 112.687 41.2595C113.528 41.2595 114.36 41.2681 115.183 41.2853C116.005 41.2853 116.773 41.2853 117.486 41.2853C118.199 41.2853 118.784 41.2853 119.241 41.2853C120.009 41.2853 120.887 41.2853 121.874 41.2853C122.861 41.2681 123.748 41.2422 124.534 41.2078Z" fill="url(#paint31_linear_803_694)"/>
<path d="M135.017 41.2078V41.7241C134.432 41.7413 133.993 41.8101 133.7 41.9306C133.408 42.0338 133.207 42.2403 133.097 42.5501C133.006 42.8426 132.96 43.3072 132.96 43.9439V56.7468C132.96 57.3663 133.006 57.8309 133.097 58.1406C133.207 58.4504 133.408 58.6569 133.7 58.7601C133.993 58.8634 134.432 58.9322 135.017 58.9666V59.4829C134.523 59.4484 133.901 59.4312 133.152 59.4312C132.402 59.414 131.644 59.4054 130.876 59.4054C129.98 59.4054 129.148 59.414 128.38 59.4312C127.631 59.4312 127.018 59.4484 126.543 59.4829V58.9666C127.11 58.9322 127.539 58.8634 127.832 58.7601C128.143 58.6569 128.344 58.4504 128.435 58.1406C128.545 57.8309 128.6 57.3663 128.6 56.7468V43.9439C128.6 43.3072 128.545 42.8426 128.435 42.5501C128.344 42.2403 128.143 42.0338 127.832 41.9306C127.539 41.8101 127.11 41.7413 126.543 41.7241V41.2078C127.018 41.225 127.631 41.2423 128.38 41.2595C129.148 41.2767 129.98 41.2853 130.876 41.2853C131.644 41.2853 132.402 41.2767 133.152 41.2595C133.901 41.2423 134.523 41.225 135.017 41.2078ZM141.324 42.6275C141.324 42.6275 141.324 42.7221 141.324 42.9114C141.324 43.0835 141.324 43.2642 141.324 43.4535C141.342 43.6428 141.351 43.7374 141.351 43.7374L132.192 58.3213L131.945 57.5986L141.324 42.6275ZM147.192 41.2078V41.7241C146.607 41.7413 146.169 41.8101 145.876 41.9306C145.584 42.0338 145.382 42.2403 145.273 42.5501C145.181 42.8426 145.136 43.3072 145.136 43.9439V56.7468C145.136 57.3663 145.181 57.8309 145.273 58.1406C145.382 58.4504 145.584 58.6569 145.876 58.7601C146.169 58.8634 146.607 58.9322 147.192 58.9666V59.4829C146.717 59.4484 146.095 59.4312 145.328 59.4312C144.56 59.414 143.737 59.4054 142.86 59.4054C142.092 59.4054 141.324 59.414 140.556 59.4312C139.806 59.4312 139.194 59.4484 138.719 59.4829V58.9666C139.285 58.9322 139.715 58.8634 140.008 58.7601C140.3 58.6569 140.501 58.4504 140.611 58.1406C140.721 57.8309 140.775 57.3663 140.775 56.7468V43.9439C140.775 43.3072 140.721 42.8426 140.611 42.5501C140.501 42.2403 140.3 42.0338 140.008 41.9306C139.715 41.8101 139.285 41.7413 138.719 41.7241V41.2078C139.194 41.225 139.806 41.2423 140.556 41.2595C141.324 41.2767 142.092 41.2853 142.86 41.2853C143.737 41.2853 144.56 41.2767 145.328 41.2595C146.095 41.2423 146.717 41.225 147.192 41.2078Z" fill="url(#paint32_linear_803_694)"/>
<path d="M166.863 41.2078V41.7241C166.278 41.7413 165.839 41.8101 165.547 41.9306C165.254 42.0338 165.053 42.2403 164.943 42.5501C164.852 42.8426 164.806 43.3072 164.806 43.9439V56.7468C164.806 57.3663 164.852 57.8309 164.943 58.1406C165.053 58.4504 165.254 58.6569 165.547 58.7601C165.839 58.8634 166.278 58.9322 166.863 58.9666V59.4829C166.406 59.4484 165.784 59.4312 164.998 59.4312C164.23 59.414 163.408 59.4054 162.53 59.4054C161.781 59.4054 161.022 59.414 160.254 59.4312C159.486 59.4312 158.865 59.4484 158.389 59.4829V58.9666C158.956 58.9322 159.386 58.8634 159.678 58.7601C159.989 58.6569 160.19 58.4504 160.282 58.1406C160.391 57.8309 160.446 57.3663 160.446 56.7468V43.9439C160.446 43.0491 160.336 42.4554 160.117 42.1629C159.916 41.8703 159.459 41.7241 158.746 41.7241C157.503 41.7241 156.625 42.0941 156.113 42.834C155.601 43.5739 155.345 44.6064 155.345 45.9315C155.345 46.7402 155.446 47.4802 155.647 48.1513C155.848 48.8052 156.232 49.3301 156.799 49.7259C157.366 50.1044 158.188 50.2937 159.267 50.2937H161.625C161.625 50.2937 161.625 50.3798 161.625 50.5518C161.625 50.7239 161.625 50.81 161.625 50.81H158.993C157.366 50.81 156.022 50.6723 154.962 50.397C153.901 50.1216 153.06 49.7517 152.439 49.287C151.835 48.8224 151.406 48.2976 151.15 47.7125C150.912 47.1274 150.793 46.5165 150.793 45.8798C150.793 44.899 151.067 44.0644 151.616 43.3761C152.183 42.6705 153.024 42.1371 154.139 41.7757C155.272 41.4143 156.689 41.2336 158.389 41.2336C158.737 41.2336 159.313 41.2423 160.117 41.2595C160.94 41.2767 161.799 41.2853 162.695 41.2853C163.463 41.2853 164.23 41.2767 164.998 41.2595C165.784 41.2423 166.406 41.225 166.863 41.2078ZM161.461 50.3712L161.406 50.81H158.444C157.877 50.81 157.43 50.9734 157.1 51.3004C156.79 51.6101 156.543 52.0404 156.36 52.591C156.177 53.1245 156.022 53.7526 155.894 54.4753L155.4 57.0565C155.199 58.1234 154.779 58.8548 154.139 59.2506C153.499 59.6463 152.695 59.8442 151.726 59.8442C150.94 59.8442 150.263 59.7238 149.696 59.4829C149.13 59.2592 148.609 58.8806 148.133 58.3471L148.517 58.0374C148.7 58.2267 148.865 58.3729 149.011 58.4762C149.175 58.5622 149.376 58.6139 149.614 58.6311C149.961 58.6311 150.227 58.4934 150.409 58.2181C150.592 57.9427 150.757 57.4609 150.903 56.7726L151.479 54.1139C151.716 53.0126 152.256 52.221 153.097 51.7392C153.938 51.2574 155.144 50.9218 156.717 50.7325C157.064 50.6809 157.411 50.6379 157.759 50.6035C158.106 50.5691 158.563 50.5346 159.13 50.5002C159.715 50.4486 160.492 50.4056 161.461 50.3712Z" fill="url(#paint33_linear_803_694)"/>
<path d="M185.364 41.1562L192.028 57.3146C192.284 57.9341 192.567 58.3643 192.878 58.6053C193.207 58.829 193.499 58.9494 193.755 58.9666V59.4829C193.207 59.4484 192.558 59.4312 191.808 59.4312C191.077 59.414 190.337 59.4054 189.587 59.4054C188.746 59.4054 187.951 59.414 187.201 59.4312C186.452 59.4312 185.858 59.4484 185.419 59.4829V58.9666C186.351 58.9322 186.936 58.7859 187.174 58.5278C187.43 58.2525 187.375 57.676 187.009 56.7984L182.348 44.7957L182.841 44.1246L178.673 54.3462C178.271 55.2927 178.024 56.067 177.932 56.6693C177.859 57.2716 177.905 57.7362 178.07 58.0632C178.252 58.3902 178.536 58.6225 178.92 58.7601C179.322 58.8806 179.797 58.9494 180.346 58.9666V59.4829C179.742 59.4484 179.166 59.4312 178.618 59.4312C178.07 59.414 177.512 59.4054 176.945 59.4054C176.543 59.4054 176.159 59.414 175.794 59.4312C175.446 59.4312 175.135 59.4484 174.861 59.4829V58.9666C175.245 58.8978 175.638 58.6655 176.04 58.2697C176.443 57.8739 176.836 57.2028 177.219 56.2563L183.472 41.1562C183.764 41.1734 184.075 41.182 184.404 41.182C184.752 41.182 185.072 41.1734 185.364 41.1562ZM187.284 52.049V52.5652H179.112L179.386 52.049H187.284Z" fill="url(#paint34_linear_803_694)"/>
<path d="M211.19 41.2078V41.7241C210.569 41.7413 210.093 41.8101 209.764 41.9306C209.453 42.0338 209.243 42.2403 209.133 42.5501C209.024 42.8426 208.969 43.3072 208.969 43.9439V56.7468C208.969 57.3663 209.015 57.8395 209.106 58.1664C209.216 58.4762 209.417 58.6913 209.709 58.8117C210.002 58.915 210.441 58.9666 211.026 58.9666H211.848C211.775 59.6377 211.72 60.283 211.684 60.9025C211.665 61.522 211.656 61.9953 211.656 62.3222C211.656 62.6664 211.665 62.9761 211.684 63.2514C211.702 63.544 211.72 63.7935 211.739 64H211.108C210.925 62.8643 210.633 61.9608 210.23 61.2897C209.828 60.6358 209.307 60.1712 208.667 59.8959C208.046 59.6205 207.305 59.4829 206.446 59.4829H199.81C198.951 59.4829 198.201 59.6205 197.561 59.8959C196.94 60.1712 196.428 60.6358 196.025 61.2897C195.623 61.9608 195.331 62.8643 195.148 64H194.517C194.554 63.7935 194.572 63.544 194.572 63.2514C194.59 62.9761 194.599 62.6664 194.599 62.3222C194.599 61.9953 194.581 61.522 194.545 60.9025C194.526 60.283 194.481 59.6377 194.408 58.9666H202.387C203.009 58.9666 203.475 58.915 203.786 58.8117C204.115 58.6913 204.335 58.4762 204.444 58.1664C204.554 57.8395 204.609 57.3663 204.609 56.7468V43.9439C204.609 43.3072 204.545 42.834 204.417 42.5243C204.307 42.2145 204.106 42.008 203.813 41.9048C203.539 41.7843 203.174 41.7241 202.717 41.7241H202.36C201.976 41.7241 201.665 41.7843 201.428 41.9048C201.19 42.008 201.007 42.2231 200.879 42.5501C200.77 42.8598 200.687 43.3244 200.632 43.9439C200.541 44.9248 200.45 45.9831 200.358 47.1188C200.285 48.2546 200.185 49.4075 200.057 50.5777C199.929 51.7306 199.746 52.8405 199.508 53.9074C199.289 54.9571 198.987 55.9036 198.603 56.7468C198.219 57.5728 197.726 58.2353 197.122 58.7343C196.519 59.2161 195.779 59.4571 194.901 59.4571V58.9666C195.742 58.9666 196.446 58.6741 197.013 58.089C197.579 57.4867 198.036 56.6779 198.384 55.6627C198.731 54.6474 199.005 53.4944 199.206 52.2038C199.426 50.896 199.59 49.5366 199.7 48.1255C199.81 46.7144 199.91 45.3206 200.002 43.9439C200.038 43.3416 200.002 42.8856 199.892 42.5759C199.801 42.2661 199.59 42.051 199.261 41.9306C198.932 41.8101 198.439 41.7413 197.78 41.7241V41.2078C198.164 41.225 198.621 41.2423 199.152 41.2595C199.682 41.2767 200.166 41.2853 200.605 41.2853C201.026 41.2853 201.428 41.2767 201.812 41.2595C202.214 41.225 202.616 41.2078 203.018 41.2078C203.713 41.2078 204.344 41.225 204.91 41.2595C205.477 41.2767 206.154 41.2853 206.94 41.2853C207.397 41.2853 207.89 41.2853 208.42 41.2853C208.969 41.2681 209.481 41.2595 209.956 41.2595C210.45 41.2423 210.861 41.225 211.19 41.2078Z" fill="url(#paint35_linear_803_694)"/>
<path d="M213.722 41.2078C214.198 41.225 214.819 41.2423 215.587 41.2595C216.355 41.2767 217.123 41.2853 217.891 41.2853C218.768 41.2853 219.618 41.2767 220.441 41.2595C221.264 41.2423 221.849 41.2336 222.196 41.2336C224.463 41.2336 226.154 41.6122 227.269 42.3694C228.403 43.1265 228.969 44.0988 228.969 45.2862C228.969 45.8884 228.778 46.4993 228.394 47.1188C228.01 47.7383 227.416 48.289 226.611 48.7708C225.807 49.2526 224.765 49.6054 223.485 49.8291V49.8807C225.203 50.0012 226.565 50.2937 227.571 50.7583C228.576 51.223 229.299 51.7822 229.737 52.4361C230.176 53.09 230.395 53.7698 230.395 54.4753C230.395 55.5594 230.094 56.4714 229.491 57.2114C228.887 57.9513 228.019 58.5192 226.885 58.915C225.752 59.2936 224.399 59.4829 222.827 59.4829C222.388 59.4829 221.757 59.4743 220.935 59.4571C220.112 59.4226 219.116 59.4054 217.946 59.4054C217.141 59.4054 216.355 59.414 215.587 59.4312C214.819 59.4312 214.198 59.4484 213.722 59.4829V58.9666C214.307 58.9322 214.746 58.8634 215.039 58.7601C215.331 58.6569 215.523 58.4504 215.615 58.1406C215.724 57.8309 215.779 57.3663 215.779 56.7468V43.9439C215.779 43.3072 215.724 42.8426 215.615 42.5501C215.523 42.2403 215.322 42.0338 215.011 41.9306C214.719 41.8101 214.289 41.7413 213.722 41.7241V41.2078ZM221.84 41.7241C221.127 41.7241 220.66 41.8703 220.441 42.1629C220.24 42.4554 220.139 43.0491 220.139 43.9439V56.7468C220.139 57.3491 220.185 57.8051 220.277 58.1148C220.386 58.4246 220.569 58.6311 220.825 58.7343C221.099 58.8376 221.501 58.8892 222.032 58.8892C223.348 58.8892 224.308 58.502 224.911 57.7276C225.532 56.9361 225.843 55.8175 225.843 54.3721C225.843 53.047 225.487 52.0231 224.774 51.3004C224.079 50.5777 222.918 50.2163 221.291 50.2163H218.96C218.96 50.2163 218.96 50.1475 218.96 50.0098C218.96 49.8549 218.96 49.7775 218.96 49.7775H221.319C222.178 49.7775 222.836 49.5882 223.293 49.2096C223.75 48.8138 224.07 48.2976 224.253 47.6609C224.436 47.007 224.527 46.31 224.527 45.5701C224.527 44.2967 224.317 43.3416 223.896 42.7049C223.476 42.051 222.79 41.7241 221.84 41.7241Z" fill="url(#paint36_linear_803_694)"/>
<path d="M242.65 40.8465C244.588 40.8465 246.279 41.2164 247.723 41.9564C249.186 42.6963 250.319 43.7632 251.124 45.1571C251.928 46.5338 252.33 48.2115 252.33 50.1905C252.33 52.1178 251.919 53.8042 251.096 55.2497C250.273 56.6952 249.122 57.8223 247.641 58.6311C246.178 59.4398 244.506 59.8442 242.623 59.8442C240.685 59.8442 238.984 59.4743 237.522 58.7343C236.078 57.9944 234.953 56.9275 234.149 55.5336C233.345 54.1397 232.942 52.462 232.942 50.5002C232.942 48.5729 233.354 46.8865 234.176 45.441C235.017 43.9955 236.16 42.8684 237.604 42.0596C239.067 41.2509 240.749 40.8465 242.65 40.8465ZM242.54 41.3111C241.516 41.3111 240.621 41.6983 239.853 42.4726C239.103 43.247 238.518 44.3139 238.098 45.6733C237.696 47.0328 237.494 48.6073 237.494 50.397C237.494 52.221 237.723 53.8128 238.18 55.1722C238.655 56.5145 239.286 57.5556 240.072 58.2955C240.877 59.0182 241.763 59.3796 242.732 59.3796C243.756 59.3796 244.643 58.9924 245.392 58.2181C246.16 57.4437 246.745 56.3768 247.147 55.0174C247.568 53.6407 247.778 52.0662 247.778 50.2937C247.778 48.4525 247.54 46.8607 247.065 45.5185C246.608 44.1762 245.977 43.1437 245.173 42.421C244.387 41.6811 243.509 41.3111 242.54 41.3111Z" fill="url(#paint37_linear_803_694)"/>
<path d="M263.249 41.2078V41.7241C262.664 41.7413 262.216 41.8101 261.905 41.9306C261.612 42.0338 261.42 42.2403 261.329 42.5501C261.238 42.8426 261.192 43.3072 261.192 43.9439V56.7468C261.192 57.3663 261.238 57.8309 261.329 58.1406C261.439 58.4504 261.64 58.6569 261.932 58.7601C262.225 58.8634 262.664 58.9322 263.249 58.9666V59.4829C262.755 59.4484 262.133 59.4312 261.384 59.4312C260.634 59.414 259.876 59.4054 259.108 59.4054C258.23 59.4054 257.398 59.414 256.612 59.4312C255.845 59.4312 255.232 59.4484 254.775 59.4829V58.9666C255.36 58.9322 255.799 58.8634 256.091 58.7601C256.384 58.6569 256.576 58.4504 256.667 58.1406C256.777 57.8309 256.832 57.3663 256.832 56.7468V43.9439C256.832 43.3072 256.777 42.8426 256.667 42.5501C256.576 42.2403 256.375 42.0338 256.064 41.9306C255.771 41.8101 255.342 41.7413 254.775 41.7241V41.2078C255.232 41.225 255.845 41.2423 256.612 41.2595C257.398 41.2767 258.23 41.2853 259.108 41.2853C259.876 41.2853 260.634 41.2767 261.384 41.2595C262.133 41.2423 262.755 41.225 263.249 41.2078ZM261.987 49.7259C263.45 49.7259 264.72 49.8291 265.799 50.0356C266.896 50.2249 267.773 50.5777 268.432 51.0939C269.108 51.5929 269.565 52.3329 269.803 53.3138L270.598 56.7726C270.744 57.4781 270.909 57.9686 271.092 58.2439C271.274 58.502 271.549 58.6311 271.914 58.6311C272.134 58.6139 272.316 58.5622 272.463 58.4762C272.627 58.3729 272.801 58.2267 272.984 58.0374L273.368 58.3471C272.874 58.8634 272.344 59.242 271.777 59.4829C271.21 59.7238 270.525 59.8442 269.72 59.8442C268.733 59.8442 267.92 59.6549 267.28 59.2764C266.64 58.8806 266.219 58.1406 266.018 57.0565L265.278 53.1073C265.15 52.4189 264.958 51.8597 264.702 51.4295C264.464 50.9993 264.099 50.6809 263.605 50.4744C263.112 50.2679 262.426 50.1647 261.548 50.1647H260.479V49.7259H261.987ZM261.082 50.1647V49.7259C261.868 49.7086 262.581 49.5108 263.221 49.1322C263.861 48.7364 264.547 48.1341 265.278 47.3253L266.896 45.4927C267.609 44.7183 268.02 44.0558 268.13 43.5051C268.24 42.9372 268.121 42.4984 267.773 42.1887C267.426 41.8789 266.887 41.7155 266.155 41.6983V41.2078C266.594 41.225 267.024 41.2423 267.444 41.2595C267.865 41.2595 268.294 41.2681 268.733 41.2853C269.172 41.2853 269.656 41.2853 270.187 41.2853C270.735 41.2853 271.22 41.2767 271.64 41.2595C272.079 41.2423 272.463 41.225 272.792 41.2078V41.6983C272.188 41.8187 271.558 42.0596 270.9 42.421C270.241 42.7824 269.538 43.3675 268.788 44.1762L263.358 50.1647H261.082Z" fill="url(#paint38_linear_803_694)"/>
<path d="M284.246 41.1562L290.91 57.3146C291.166 57.9341 291.449 58.3643 291.76 58.6053C292.089 58.829 292.382 58.9494 292.638 58.9666V59.4829C292.089 59.4484 291.44 59.4312 290.691 59.4312C289.959 59.414 289.219 59.4054 288.469 59.4054C287.628 59.4054 286.833 59.414 286.084 59.4312C285.334 59.4312 284.74 59.4484 284.301 59.4829V58.9666C285.233 58.9322 285.818 58.7859 286.056 58.5278C286.312 58.2525 286.257 57.676 285.892 56.7984L281.23 44.7957L281.723 44.1246L277.555 54.3462C277.153 55.2927 276.906 56.067 276.815 56.6693C276.742 57.2716 276.787 57.7362 276.952 58.0632C277.135 58.3902 277.418 58.6225 277.802 58.7601C278.204 58.8806 278.679 58.9494 279.228 58.9666V59.4829C278.625 59.4484 278.049 59.4312 277.5 59.4312C276.952 59.414 276.394 59.4054 275.828 59.4054C275.425 59.4054 275.041 59.414 274.676 59.4312C274.328 59.4312 274.018 59.4484 273.743 59.4829V58.9666C274.127 58.8978 274.52 58.6655 274.923 58.2697C275.325 57.8739 275.718 57.2028 276.102 56.2563L282.354 41.1562C282.647 41.1734 282.957 41.182 283.286 41.182C283.634 41.182 283.954 41.1734 284.246 41.1562ZM286.166 52.049V52.5652H277.994L278.268 52.049H286.166Z" fill="url(#paint39_linear_803_694)"/>
<path d="M309.019 41.2078C308.946 42.0854 308.891 42.9286 308.855 43.7374C308.836 44.5462 308.827 45.1657 308.827 45.5959C308.827 45.9745 308.836 46.3359 308.855 46.68C308.873 47.0242 308.891 47.3167 308.91 47.5576H308.279C307.986 46.1121 307.611 44.9678 307.154 44.1246C306.716 43.2814 306.186 42.6877 305.564 42.3436C304.942 41.9822 304.211 41.8015 303.37 41.8015H302.739V56.5403C302.739 57.2286 302.813 57.7448 302.959 58.089C303.123 58.4332 303.416 58.6655 303.836 58.7859C304.257 58.8892 304.869 58.9494 305.674 58.9666V59.4829C305.107 59.4657 304.348 59.4484 303.398 59.4312C302.465 59.414 301.487 59.4054 300.463 59.4054C299.458 59.4054 298.507 59.414 297.611 59.4312C296.716 59.4484 295.993 59.4657 295.445 59.4829V58.9666C296.268 58.9494 296.889 58.8892 297.31 58.7859C297.73 58.6655 298.014 58.4332 298.16 58.089C298.306 57.7448 298.379 57.2286 298.379 56.5403V41.8015H297.776C296.935 41.8015 296.204 41.9822 295.582 42.3436C294.961 42.6877 294.43 43.2814 293.992 44.1246C293.553 44.9506 293.169 46.0949 292.84 47.5576H292.209C292.246 47.3167 292.264 47.0242 292.264 46.68C292.282 46.3359 292.291 45.9745 292.291 45.5959C292.291 45.1657 292.273 44.5462 292.237 43.7374C292.218 42.9286 292.173 42.0854 292.099 41.2078C292.94 41.225 293.854 41.2423 294.842 41.2595C295.847 41.2767 296.853 41.2853 297.858 41.2853C298.864 41.2853 299.769 41.2853 300.573 41.2853C301.396 41.2853 302.301 41.2853 303.288 41.2853C304.293 41.2853 305.299 41.2767 306.304 41.2595C307.31 41.2423 308.215 41.225 309.019 41.2078Z" fill="url(#paint40_linear_803_694)"/>
<path d="M321.167 40.8465C323.104 40.8465 324.796 41.2164 326.24 41.9564C327.702 42.6963 328.836 43.7632 329.64 45.1571C330.445 46.5338 330.847 48.2115 330.847 50.1905C330.847 52.1178 330.435 53.8042 329.613 55.2497C328.79 56.6952 327.638 57.8223 326.158 58.6311C324.695 59.4398 323.022 59.8442 321.139 59.8442C319.201 59.8442 317.501 59.4743 316.039 58.7343C314.594 57.9944 313.47 56.9275 312.666 55.5336C311.861 54.1397 311.459 52.462 311.459 50.5002C311.459 48.5729 311.87 46.8865 312.693 45.441C313.534 43.9955 314.677 42.8684 316.121 42.0596C317.583 41.2509 319.265 40.8465 321.167 40.8465ZM321.057 41.3111C320.033 41.3111 319.137 41.6983 318.369 42.4726C317.62 43.247 317.035 44.3139 316.614 45.6733C316.212 47.0328 316.011 48.6073 316.011 50.397C316.011 52.221 316.24 53.8128 316.697 55.1722C317.172 56.5145 317.803 57.5556 318.589 58.2955C319.393 59.0182 320.28 59.3796 321.249 59.3796C322.273 59.3796 323.159 58.9924 323.909 58.2181C324.677 57.4437 325.262 56.3768 325.664 55.0174C326.084 53.6407 326.295 52.0662 326.295 50.2937C326.295 48.4525 326.057 46.8607 325.582 45.5185C325.125 44.1762 324.494 43.1437 323.689 42.421C322.903 41.6811 322.026 41.3111 321.057 41.3111Z" fill="url(#paint41_linear_803_694)"/>
<path d="M333.292 41.2078C333.767 41.225 334.389 41.2423 335.156 41.2595C335.924 41.2767 336.692 41.2853 337.46 41.2853C338.337 41.2853 339.188 41.2767 340.01 41.2595C340.833 41.2423 341.418 41.2336 341.765 41.2336C344.032 41.2336 345.723 41.6122 346.838 42.3694C347.972 43.1265 348.539 44.0988 348.539 45.2862C348.539 45.8884 348.347 46.4993 347.963 47.1188C347.579 47.7383 346.985 48.289 346.18 48.7708C345.376 49.2526 344.334 49.6054 343.054 49.8291V49.8807C344.773 50.0012 346.135 50.2937 347.14 50.7583C348.146 51.223 348.868 51.7822 349.307 52.4361C349.745 53.09 349.965 53.7698 349.965 54.4753C349.965 55.5594 349.663 56.4714 349.06 57.2114C348.456 57.9513 347.588 58.5192 346.455 58.915C345.321 59.2936 343.968 59.4829 342.396 59.4829C341.957 59.4829 341.327 59.4743 340.504 59.4571C339.681 59.4226 338.685 59.4054 337.515 59.4054C336.71 59.4054 335.924 59.414 335.156 59.4312C334.389 59.4312 333.767 59.4484 333.292 59.4829V58.9666C333.877 58.9322 334.315 58.8634 334.608 58.7601C334.9 58.6569 335.092 58.4504 335.184 58.1406C335.294 57.8309 335.348 57.3663 335.348 56.7468V43.9439C335.348 43.3072 335.294 42.8426 335.184 42.5501C335.092 42.2403 334.891 42.0338 334.581 41.9306C334.288 41.8101 333.858 41.7413 333.292 41.7241V41.2078ZM341.409 41.7241C340.696 41.7241 340.23 41.8703 340.01 42.1629C339.809 42.4554 339.709 43.0491 339.709 43.9439V56.7468C339.709 57.3491 339.754 57.8051 339.846 58.1148C339.955 58.4246 340.138 58.6311 340.394 58.7343C340.668 58.8376 341.071 58.8892 341.601 58.8892C342.917 58.8892 343.877 58.502 344.48 57.7276C345.102 56.9361 345.413 55.8175 345.413 54.3721C345.413 53.047 345.056 52.0231 344.343 51.3004C343.648 50.5777 342.487 50.2163 340.86 50.2163H338.529C338.529 50.2163 338.529 50.1475 338.529 50.0098C338.529 49.8549 338.529 49.7775 338.529 49.7775H340.888C341.747 49.7775 342.405 49.5882 342.862 49.2096C343.319 48.8138 343.639 48.2976 343.822 47.6609C344.005 47.007 344.096 46.31 344.096 45.5701C344.096 44.2967 343.886 43.3416 343.466 42.7049C343.045 42.051 342.359 41.7241 341.409 41.7241Z" fill="url(#paint42_linear_803_694)"/>
</g>
<defs>
<filter id="filter0_d_803_694" x="0" y="0.549019" width="535.958" height="78" filterUnits="userSpaceOnUse" color-interpolation-filters="sRGB">
<feFlood flood-opacity="0" result="BackgroundImageFix"/>
<feColorMatrix in="SourceAlpha" type="matrix" values="0 0 0 0 0 0 0 0 0 0 0 0 0 0 0 0 0 0 127 0" result="hardAlpha"/>
<feOffset dy="4.54902"/>
<feGaussianBlur stdDeviation="5"/>
<feComposite in2="hardAlpha" operator="out"/>
<feColorMatrix type="matrix" values="0 0 0 0 0.121569 0 0 0 0 0.0784314 0 0 0 0 0.0705882 0 0 0 0.4 0"/>
<feBlend mode="normal" in2="BackgroundImageFix" result="effect1_dropShadow_803_694"/>
<feBlend mode="normal" in="SourceGraphic" in2="effect1_dropShadow_803_694" result="shape"/>
</filter>
<linearGradient id="paint0_linear_803_694" x1="10" y1="35" x2="525.958" y2="35" gradientUnits="userSpaceOnUse">
<stop stop-color="#BEA04E"/>
<stop offset="0.526042" stop-color="#F0EBB1"/>
<stop offset="1" stop-color="#BEA04E"/>
</linearGradient>
<linearGradient id="paint1_linear_803_694" x1="10" y1="35" x2="525.958" y2="35" gradientUnits="userSpaceOnUse">
<stop stop-color="#BEA04E"/>
<stop offset="0.526042" stop-color="#F0EBB1"/>
<stop offset="1" stop-color="#BEA04E"/>
</linearGradient>
<linearGradient id="paint2_linear_803_694" x1="10" y1="35" x2="525.958" y2="35" gradientUnits="userSpaceOnUse">
<stop stop-color="#BEA04E"/>
<stop offset="0.526042" stop-color="#F0EBB1"/>
<stop offset="1" stop-color="#BEA04E"/>
</linearGradient>
<linearGradient id="paint3_linear_803_694" x1="10" y1="35" x2="525.958" y2="35" gradientUnits="userSpaceOnUse">
<stop stop-color="#BEA04E"/>
<stop offset="0.526042" stop-color="#F0EBB1"/>
<stop offset="1" stop-color="#BEA04E"/>
</linearGradient>
<linearGradient id="paint4_linear_803_694" x1="10" y1="35" x2="525.958" y2="35" gradientUnits="userSpaceOnUse">
<stop stop-color="#BEA04E"/>
<stop offset="0.526042" stop-color="#F0EBB1"/>
<stop offset="1" stop-color="#BEA04E"/>
</linearGradient>
<linearGradient id="paint5_linear_803_694" x1="10" y1="35" x2="525.958" y2="35" gradientUnits="userSpaceOnUse">
<stop stop-color="#BEA04E"/>
<stop offset="0.526042" stop-color="#F0EBB1"/>
<stop offset="1" stop-color="#BEA04E"/>
</linearGradient>
<linearGradient id="paint6_linear_803_694" x1="10" y1="35" x2="525.958" y2="35" gradientUnits="userSpaceOnUse">
<stop stop-color="#BEA04E"/>
<stop offset="0.526042" stop-color="#F0EBB1"/>
<stop offset="1" stop-color="#BEA04E"/>
</linearGradient>
<linearGradient id="paint7_linear_803_694" x1="10" y1="35" x2="525.958" y2="35" gradientUnits="userSpaceOnUse">
<stop stop-color="#BEA04E"/>
<stop offset="0.526042" stop-color="#F0EBB1"/>
<stop offset="1" stop-color="#BEA04E"/>
</linearGradient>
<linearGradient id="paint8_linear_803_694" x1="10" y1="35" x2="525.958" y2="35" gradientUnits="userSpaceOnUse">
<stop stop-color="#BEA04E"/>
<stop offset="0.526042" stop-color="#F0EBB1"/>
<stop offset="1" stop-color="#BEA04E"/>
</linearGradient>
<linearGradient id="paint9_linear_803_694" x1="10" y1="35" x2="525.958" y2="35" gradientUnits="userSpaceOnUse">
<stop stop-color="#BEA04E"/>
<stop offset="0.526042" stop-color="#F0EBB1"/>
<stop offset="1" stop-color="#BEA04E"/>
</linearGradient>
<linearGradient id="paint10_linear_803_694" x1="10" y1="35" x2="525.958" y2="35" gradientUnits="userSpaceOnUse">
<stop stop-color="#BEA04E"/>
<stop offset="0.526042" stop-color="#F0EBB1"/>
<stop offset="1" stop-color="#BEA04E"/>
</linearGradient>
<linearGradient id="paint11_linear_803_694" x1="10" y1="35" x2="525.958" y2="35" gradientUnits="userSpaceOnUse">
<stop stop-color="#BEA04E"/>
<stop offset="0.526042" stop-color="#F0EBB1"/>
<stop offset="1" stop-color="#BEA04E"/>
</linearGradient>
<linearGradient id="paint12_linear_803_694" x1="10" y1="35" x2="525.958" y2="35" gradientUnits="userSpaceOnUse">
<stop stop-color="#BEA04E"/>
<stop offset="0.526042" stop-color="#F0EBB1"/>
<stop offset="1" stop-color="#BEA04E"/>
</linearGradient>
<linearGradient id="paint13_linear_803_694" x1="10" y1="35" x2="525.958" y2="35" gradientUnits="userSpaceOnUse">
<stop stop-color="#BEA04E"/>
<stop offset="0.526042" stop-color="#F0EBB1"/>
<stop offset="1" stop-color="#BEA04E"/>
</linearGradient>
<linearGradient id="paint14_linear_803_694" x1="10" y1="35" x2="525.958" y2="35" gradientUnits="userSpaceOnUse">
<stop stop-color="#BEA04E"/>
<stop offset="0.526042" stop-color="#F0EBB1"/>
<stop offset="1" stop-color="#BEA04E"/>
</linearGradient>
<linearGradient id="paint15_linear_803_694" x1="10" y1="35" x2="525.958" y2="35" gradientUnits="userSpaceOnUse">
<stop stop-color="#BEA04E"/>
<stop offset="0.526042" stop-color="#F0EBB1"/>
<stop offset="1" stop-color="#BEA04E"/>
</linearGradient>
<linearGradient id="paint16_linear_803_694" x1="10" y1="35" x2="525.958" y2="35" gradientUnits="userSpaceOnUse">
<stop stop-color="#BEA04E"/>
<stop offset="0.526042" stop-color="#F0EBB1"/>
<stop offset="1" stop-color="#BEA04E"/>
</linearGradient>
<linearGradient id="paint17_linear_803_694" x1="10" y1="35" x2="525.958" y2="35" gradientUnits="userSpaceOnUse">
<stop stop-color="#BEA04E"/>
<stop offset="0.526042" stop-color="#F0EBB1"/>
<stop offset="1" stop-color="#BEA04E"/>
</linearGradient>
<linearGradient id="paint18_linear_803_694" x1="10" y1="35" x2="525.958" y2="35" gradientUnits="userSpaceOnUse">
<stop stop-color="#BEA04E"/>
<stop offset="0.526042" stop-color="#F0EBB1"/>
<stop offset="1" stop-color="#BEA04E"/>
</linearGradient>
<linearGradient id="paint19_linear_803_694" x1="10" y1="35" x2="525.958" y2="35" gradientUnits="userSpaceOnUse">
<stop stop-color="#BEA04E"/>
<stop offset="0.526042" stop-color="#F0EBB1"/>
<stop offset="1" stop-color="#BEA04E"/>
</linearGradient>
<linearGradient id="paint20_linear_803_694" x1="10" y1="35" x2="525.958" y2="35" gradientUnits="userSpaceOnUse">
<stop stop-color="#BEA04E"/>
<stop offset="0.526042" stop-color="#F0EBB1"/>
<stop offset="1" stop-color="#BEA04E"/>
</linearGradient>
<linearGradient id="paint21_linear_803_694" x1="10" y1="35" x2="525.958" y2="35" gradientUnits="userSpaceOnUse">
<stop stop-color="#BEA04E"/>
<stop offset="0.526042" stop-color="#F0EBB1"/>
<stop offset="1" stop-color="#BEA04E"/>
</linearGradient>
<linearGradient id="paint22_linear_803_694" x1="10" y1="35" x2="525.958" y2="35" gradientUnits="userSpaceOnUse">
<stop stop-color="#BEA04E"/>
<stop offset="0.526042" stop-color="#F0EBB1"/>
<stop offset="1" stop-color="#BEA04E"/>
</linearGradient>
<linearGradient id="paint23_linear_803_694" x1="10" y1="35" x2="525.958" y2="35" gradientUnits="userSpaceOnUse">
<stop stop-color="#BEA04E"/>
<stop offset="0.526042" stop-color="#F0EBB1"/>
<stop offset="1" stop-color="#BEA04E"/>
</linearGradient>
<linearGradient id="paint24_linear_803_694" x1="10" y1="35" x2="525.958" y2="35" gradientUnits="userSpaceOnUse">
<stop stop-color="#BEA04E"/>
<stop offset="0.526042" stop-color="#F0EBB1"/>
<stop offset="1" stop-color="#BEA04E"/>
</linearGradient>
<linearGradient id="paint25_linear_803_694" x1="10" y1="35" x2="525.958" y2="35" gradientUnits="userSpaceOnUse">
<stop stop-color="#BEA04E"/>
<stop offset="0.526042" stop-color="#F0EBB1"/>
<stop offset="1" stop-color="#BEA04E"/>
</linearGradient>
<linearGradient id="paint26_linear_803_694" x1="10" y1="35" x2="525.958" y2="35" gradientUnits="userSpaceOnUse">
<stop stop-color="#BEA04E"/>
<stop offset="0.526042" stop-color="#F0EBB1"/>
<stop offset="1" stop-color="#BEA04E"/>
</linearGradient>
<linearGradient id="paint27_linear_803_694" x1="10" y1="35" x2="525.958" y2="35" gradientUnits="userSpaceOnUse">
<stop stop-color="#BEA04E"/>
<stop offset="0.526042" stop-color="#F0EBB1"/>
<stop offset="1" stop-color="#BEA04E"/>
</linearGradient>
<linearGradient id="paint28_linear_803_694" x1="10" y1="35" x2="525.958" y2="35" gradientUnits="userSpaceOnUse">
<stop stop-color="#BEA04E"/>
<stop offset="0.526042" stop-color="#F0EBB1"/>
<stop offset="1" stop-color="#BEA04E"/>
</linearGradient>
<linearGradient id="paint29_linear_803_694" x1="10" y1="35" x2="525.958" y2="35" gradientUnits="userSpaceOnUse">
<stop stop-color="#BEA04E"/>
<stop offset="0.526042" stop-color="#F0EBB1"/>
<stop offset="1" stop-color="#BEA04E"/>
</linearGradient>
<linearGradient id="paint30_linear_803_694" x1="10" y1="35" x2="525.958" y2="35" gradientUnits="userSpaceOnUse">
<stop stop-color="#BEA04E"/>
<stop offset="0.526042" stop-color="#F0EBB1"/>
<stop offset="1" stop-color="#BEA04E"/>
</linearGradient>
<linearGradient id="paint31_linear_803_694" x1="10" y1="35" x2="525.958" y2="35" gradientUnits="userSpaceOnUse">
<stop stop-color="#BEA04E"/>
<stop offset="0.526042" stop-color="#F0EBB1"/>
<stop offset="1" stop-color="#BEA04E"/>
</linearGradient>
<linearGradient id="paint32_linear_803_694" x1="10" y1="35" x2="525.958" y2="35" gradientUnits="userSpaceOnUse">
<stop stop-color="#BEA04E"/>
<stop offset="0.526042" stop-color="#F0EBB1"/>
<stop offset="1" stop-color="#BEA04E"/>
</linearGradient>
<linearGradient id="paint33_linear_803_694" x1="10" y1="35" x2="525.958" y2="35" gradientUnits="userSpaceOnUse">
<stop stop-color="#BEA04E"/>
<stop offset="0.526042" stop-color="#F0EBB1"/>
<stop offset="1" stop-color="#BEA04E"/>
</linearGradient>
<linearGradient id="paint34_linear_803_694" x1="10" y1="35" x2="525.958" y2="35" gradientUnits="userSpaceOnUse">
<stop stop-color="#BEA04E"/>
<stop offset="0.526042" stop-color="#F0EBB1"/>
<stop offset="1" stop-color="#BEA04E"/>
</linearGradient>
<linearGradient id="paint35_linear_803_694" x1="10" y1="35" x2="525.958" y2="35" gradientUnits="userSpaceOnUse">
<stop stop-color="#BEA04E"/>
<stop offset="0.526042" stop-color="#F0EBB1"/>
<stop offset="1" stop-color="#BEA04E"/>
</linearGradient>
<linearGradient id="paint36_linear_803_694" x1="10" y1="35" x2="525.958" y2="35" gradientUnits="userSpaceOnUse">
<stop stop-color="#BEA04E"/>
<stop offset="0.526042" stop-color="#F0EBB1"/>
<stop offset="1" stop-color="#BEA04E"/>
</linearGradient>
<linearGradient id="paint37_linear_803_694" x1="10" y1="35" x2="525.958" y2="35" gradientUnits="userSpaceOnUse">
<stop stop-color="#BEA04E"/>
<stop offset="0.526042" stop-color="#F0EBB1"/>
<stop offset="1" stop-color="#BEA04E"/>
</linearGradient>
<linearGradient id="paint38_linear_803_694" x1="10" y1="35" x2="525.958" y2="35" gradientUnits="userSpaceOnUse">
<stop stop-color="#BEA04E"/>
<stop offset="0.526042" stop-color="#F0EBB1"/>
<stop offset="1" stop-color="#BEA04E"/>
</linearGradient>
<linearGradient id="paint39_linear_803_694" x1="10" y1="35" x2="525.958" y2="35" gradientUnits="userSpaceOnUse">
<stop stop-color="#BEA04E"/>
<stop offset="0.526042" stop-color="#F0EBB1"/>
<stop offset="1" stop-color="#BEA04E"/>
</linearGradient>
<linearGradient id="paint40_linear_803_694" x1="10" y1="35" x2="525.958" y2="35" gradientUnits="userSpaceOnUse">
<stop stop-color="#BEA04E"/>
<stop offset="0.526042" stop-color="#F0EBB1"/>
<stop offset="1" stop-color="#BEA04E"/>
</linearGradient>
<linearGradient id="paint41_linear_803_694" x1="10" y1="35" x2="525.958" y2="35" gradientUnits="userSpaceOnUse">
<stop stop-color="#BEA04E"/>
<stop offset="0.526042" stop-color="#F0EBB1"/>
<stop offset="1" stop-color="#BEA04E"/>
</linearGradient>
<linearGradient id="paint42_linear_803_694" x1="10" y1="35" x2="525.958" y2="35" gradientUnits="userSpaceOnUse">
<stop stop-color="#BEA04E"/>
<stop offset="0.526042" stop-color="#F0EBB1"/>
<stop offset="1" stop-color="#BEA04E"/>
</linearGradient>
</defs>
</svg>
